Upgrade_CJK_Try-Regular82.ufo
<glyph name="quotedbl" format="2">
  <advance height="1000" width="342"/>
  <unicode hex="0022"/>
  <outline>
    <contour>
      <point x="60" y="529" type="line"/>
      <point x="136" y="529" type="line"/>
      <point x="136" y="740" type="line"/>
      <point x="60" y="740" type="line"/>
    </contour>
    <contour>
      <point x="206" y="529" type="line"/>
      <point x="282" y="529" type="line"/>
      <point x="282" y="740" type="line"/>
      <point x="206" y="740" type="line"/>
    </contour>
  </outline>
</glyph>
<glyph name="quotesingle" format="2">
  <advance height="1000" width="196"/>
  <unicode hex="0027"/>
  <outline>
    <contour>
      <point x="60" y="529" type="line"/>
      <point x="136" y="529" type="line"/>
      <point x="136" y="740" type="line"/>
      <point x="60" y="740" type="line"/>
    </contour>
  </outline>
</glyph>
<glyph name="parenleft" format="2">
  <advance height="1000" width="366"/>
  <unicode hex="0028"/>
  <outline>
    <contour>
      <point x="244" y="-150" type="curve"/>
      <point x="342" y="-150" type="line"/>
      <point x="215" y="-13"/>
      <point x="146" y="150"/>
      <point x="146" y="315" type="curve" smooth="yes"/>
      <point x="146" y="477"/>
      <point x="215" y="642"/>
      <point x="342" y="779" type="curve"/>
      <point x="244" y="779" type="line"/>
      <point x="126" y="646"/>
      <point x="64" y="482"/>
      <point x="64" y="315" type="curve" smooth="yes"/>
      <point x="64" y="146"/>
      <point x="126" y="-17"/>
    </contour>
  </outline>
</glyph>
<glyph name="parenright" format="2">
  <advance height="1000" width="366"/>
  <unicode hex="0029"/>
  <outline>
    <contour>
      <point x="24" y="-149" type="curve"/>
      <point x="122" y="-149" type="line"/>
      <point x="240" y="-16"/>
      <point x="302" y="148"/>
      <point x="302" y="315" type="curve" smooth="yes"/>
      <point x="302" y="484"/>
      <point x="240" y="647"/>
      <point x="122" y="780" type="curve"/>
      <point x="24" y="780" type="line"/>
      <point x="151" y="642"/>
      <point x="220" y="480"/>
      <point x="220" y="315" type="curve" smooth="yes"/>
      <point x="220" y="153"/>
      <point x="151" y="-12"/>
    </contour>
  </outline>
</glyph>
<glyph name="period" format="2">
  <advance height="1000" width="208"/>
  <unicode hex="002E"/>
  <outline>
    <contour>
      <point x="60" y="0" type="line"/>
      <point x="148" y="0" type="line"/>
      <point x="148" y="88" type="line"/>
      <point x="60" y="88" type="line"/>
    </contour>
  </outline>
</glyph>
<glyph name="one" format="2">
  <advance height="1000" width="388"/>
  <unicode hex="0031"/>
  <outline>
    <contour>
      <point x="176" y="0" type="line"/>
      <point x="258" y="0" type="line"/>
      <point x="258" y="754" type="line"/>
      <point x="38" y="719" type="line"/>
      <point x="38" y="640" type="line"/>
      <point x="176" y="663" type="line"/>
    </contour>
  </outline>
</glyph>
<glyph name="three" format="2">
  <advance height="1000" width="550"/>
  <unicode hex="0033"/>
  <outline>
    <contour>
      <point x="261" y="-13" type="curve" smooth="yes"/>
      <point x="402" y="-13"/>
      <point x="491" y="67"/>
      <point x="491" y="192" type="curve" smooth="yes"/>
      <point x="491" y="289"/>
      <point x="440" y="353"/>
      <point x="342" y="382" type="curve"/>
      <point x="431" y="403"/>
      <point x="477.0" y="464"/>
      <point x="477.0" y="560" type="curve" smooth="yes"/>
      <point x="477" y="675"/>
      <point x="397.0" y="753.0"/>
      <point x="252" y="753" type="curve" smooth="yes"/>
      <point x="186" y="753"/>
      <point x="122" y="734"/>
      <point x="69" y="696" type="curve"/>
      <point x="69" y="611" type="line"/>
      <point x="120" y="653"/>
      <point x="184" y="677"/>
      <point x="252" y="677" type="curve" smooth="yes"/>
      <point x="332.0" y="677.0"/>
      <point x="394.0" y="631.9090909090909"/>
      <point x="394" y="553" type="curve" smooth="yes"/>
      <point x="394.0" y="463.93617021276594"/>
      <point x="321.0" y="415.0"/>
      <point x="203" y="415" type="curve" smooth="yes"/>
      <point x="169" y="415" type="line"/>
      <point x="169" y="339" type="line"/>
      <point x="208" y="339" type="line" smooth="yes"/>
      <point x="332" y="339"/>
      <point x="408" y="291"/>
      <point x="408.0" y="192" type="curve" smooth="yes"/>
      <point x="408.0" y="108"/>
      <point x="350" y="63"/>
      <point x="254" y="63" type="curve" smooth="yes"/>
      <point x="184.0" y="63"/>
      <point x="103" y="93"/>
      <point x="40" y="144" type="curve"/>
      <point x="40" y="53" type="line"/>
      <point x="105.0" y="11.264705882352942"/>
      <point x="182.0" y="-13.0"/>
    </contour>
  </outline>
</glyph>
<glyph name="four" format="2">
  <advance height="1000" width="625"/>
  <unicode hex="0034"/>
  <outline>
    <contour>
      <point x="380" y="0" type="line"/>
      <point x="462" y="0" type="line"/>
      <point x="462" y="201" type="line"/>
      <point x="572" y="201" type="line"/>
      <point x="572" y="273" type="line"/>
      <point x="462" y="273" type="line"/>
      <point x="462" y="740" type="line"/>
      <point x="364" y="740" type="line"/>
      <point x="42" y="258" type="line"/>
      <point x="42" y="201" type="line"/>
      <point x="380" y="201" type="line"/>
    </contour>
    <contour>
      <point x="138" y="273" type="line"/>
      <point x="380" y="635" type="line"/>
      <point x="380" y="273" type="line"/>
    </contour>
  </outline>
</glyph>
<glyph name="five" format="2">
  <advance height="1000" width="576"/>
  <unicode hex="0035"/>
  <outline>
    <contour>
      <point x="268.0" y="-12.0" type="curve" smooth="yes"/>
      <point x="409.81327800829877" y="-12.0"/>
      <point x="507.0" y="82.0"/>
      <point x="507" y="223" type="curve" smooth="yes"/>
      <point x="507" y="364"/>
      <point x="411" y="448"/>
      <point x="254" y="448" type="curve" smooth="yes"/>
      <point x="221" y="448"/>
      <point x="190" y="445"/>
      <point x="159" y="440" type="curve"/>
      <point x="179" y="658" type="line"/>
      <point x="486" y="658" type="line"/>
      <point x="486" y="740" type="line"/>
      <point x="107" y="740" type="line"/>
      <point x="73" y="354" type="line"/>
      <point x="135" y="366"/>
      <point x="187" y="370"/>
      <point x="241" y="370" type="curve" smooth="yes"/>
      <point x="354.0" y="370.0"/>
      <point x="425.0" y="317"/>
      <point x="425.0" y="215" type="curve" smooth="yes"/>
      <point x="425.0" y="124"/>
      <point x="358" y="64"/>
      <point x="263.0" y="64.0" type="curve" smooth="yes"/>
      <point x="178" y="64"/>
      <point x="110" y="95"/>
      <point x="54" y="148" type="curve"/>
      <point x="54" y="56" type="line"/>
      <point x="114.56603773584906" y="9.0"/>
      <point x="180.17924528301887" y="-12.0"/>
    </contour>
  </outline>
</glyph>
<glyph name="A" format="2">
  <advance height="1000" width="705"/>
  <unicode hex="0041"/>
  <outline>
    <contour>
      <point x="595" y="0" type="line"/>
      <point x="685" y="0" type="line"/>
      <point x="395" y="740" type="line"/>
      <point x="310" y="740" type="line"/>
      <point x="20" y="0" type="line"/>
      <point x="105" y="0" type="line"/>
      <point x="350" y="638" type="line"/>
    </contour>
    <contour>
      <point x="157" y="230" type="line"/>
      <point x="547" y="230" type="line"/>
      <point x="547" y="306" type="line"/>
      <point x="157" y="306" type="line"/>
    </contour>
  </outline>
</glyph>
<glyph name="D" format="2">
  <advance height="1000" width="755"/>
  <unicode hex="0044"/>
  <outline>
    <contour>
      <point x="76.0" y="0.0" type="line"/>
      <point x="292.0" y="0.0" type="line" smooth="yes"/>
      <point x="545.0" y="0.0"/>
      <point x="707.0" y="149.0"/>
      <point x="707.0" y="379.0" type="curve" smooth="yes"/>
      <point x="707.0" y="598.0"/>
      <point x="548.0" y="740.0"/>
      <point x="301.0" y="740.0" type="curve" smooth="yes"/>
      <point x="76.0" y="740.0" type="line"/>
    </contour>
    <contour>
      <point x="158.0" y="76.0" type="line"/>
      <point x="158.0" y="664.0" type="line"/>
      <point x="304.0" y="664.0" type="line" smooth="yes"/>
      <point x="498" y="664"/>
      <point x="623.0" y="550.0"/>
      <point x="623.0" y="379.0" type="curve" smooth="yes"/>
      <point x="623.0" y="195.0"/>
      <point x="495" y="76"/>
      <point x="295.0" y="76.0" type="curve" smooth="yes"/>
    </contour>
  </outline>
</glyph>
<glyph name="F" format="2">
  <advance height="1000" width="504"/>
  <unicode hex="0046"/>
  <outline>
    <contour>
      <point x="76.0" y="0.0" type="line"/>
      <point x="158.0" y="0.0" type="line"/>
      <point x="158.0" y="336.0" type="line"/>
      <point x="428.0" y="336.0" type="line"/>
      <point x="428.0" y="412.0" type="line"/>
      <point x="158.0" y="412.0" type="line"/>
      <point x="158.0" y="664.0" type="line"/>
      <point x="456.0" y="664.0" type="line"/>
      <point x="456.0" y="740.0" type="line"/>
      <point x="76.0" y="740.0" type="line"/>
    </contour>
  </outline>
</glyph>
<glyph name="K" format="2">
  <advance height="1000" width="634"/>
  <unicode hex="004B"/>
  <outline>
    <contour>
      <point x="76.0" y="0.0" type="line"/>
      <point x="158.0" y="0.0" type="line"/>
      <point x="158.0" y="358.0" type="line"/>
      <point x="497.0" y="0.0" type="line"/>
      <point x="610.0" y="0.0" type="line"/>
      <point x="244.0" y="384.0" type="line"/>
      <point x="592.0" y="740.0" type="line"/>
      <point x="485.0" y="740.0" type="line"/>
      <point x="158.0" y="397.0" type="line"/>
      <point x="158.0" y="740.0" type="line"/>
      <point x="76.0" y="740.0" type="line"/>
    </contour>
  </outline>
</glyph>
<glyph name="U" format="2">
  <advance height="1000" width="738"/>
  <unicode hex="0055"/>
  <outline>
    <contour>
      <point x="370.0" y="-14.0" type="curve" smooth="yes"/>
      <point x="551.0" y="-14.0"/>
      <point x="666.0" y="106.0"/>
      <point x="666.0" y="292.0" type="curve" smooth="yes"/>
      <point x="666.0" y="740.0" type="line"/>
      <point x="588.0" y="740.0" type="line"/>
      <point x="588.0" y="292.0" type="line" smooth="yes"/>
      <point x="588" y="155"/>
      <point x="503.0" y="64.0"/>
      <point x="371.0" y="64.0" type="curve" smooth="yes"/>
      <point x="243.0" y="64.0"/>
      <point x="154" y="155"/>
      <point x="154.0" y="292.0" type="curve" smooth="yes"/>
      <point x="154.0" y="740.0" type="line"/>
      <point x="72.0" y="740.0" type="line"/>
      <point x="72.0" y="292.0" type="line" smooth="yes"/>
      <point x="72.0" y="106.0"/>
      <point x="189.0" y="-14.0"/>
    </contour>
  </outline>
</glyph>
<glyph name="Y" format="2">
  <advance height="1000" width="645"/>
  <unicode hex="0059"/>
  <outline>
    <contour>
      <point x="282" y="0" type="line"/>
      <point x="364" y="0" type="line"/>
      <point x="364" y="322" type="line"/>
      <point x="633" y="740" type="line"/>
      <point x="542" y="740" type="line"/>
      <point x="325" y="396" type="line"/>
      <point x="109" y="740" type="line"/>
      <point x="12" y="740" type="line"/>
      <point x="282" y="321" type="line"/>
    </contour>
  </outline>
</glyph>
<glyph name="bracketleft" format="2">
  <advance height="1000" width="378"/>
  <unicode hex="005B"/>
  <outline>
    <contour>
      <point x="92" y="-150" type="line"/>
      <point x="322" y="-150" type="line"/>
      <point x="322" y="-78" type="line"/>
      <point x="172" y="-78" type="line"/>
      <point x="172" y="707" type="line"/>
      <point x="322" y="707" type="line"/>
      <point x="322" y="779" type="line"/>
      <point x="92" y="779" type="line"/>
    </contour>
  </outline>
</glyph>
<glyph name="d" format="2">
  <advance height="1000" width="569"/>
  <unicode hex="0064"/>
  <outline>
    <contour>
      <point x="274.0" y="-10.0" type="curve" smooth="yes"/>
      <point x="335.0" y="-10.0"/>
      <point x="392.0" y="19.0"/>
      <point x="426.0" y="71.0" type="curve"/>
      <point x="433.0" y="0.0" type="line"/>
      <point x="505.0" y="0.0" type="line"/>
      <point x="505.0" y="740.0" type="line"/>
      <point x="425.0" y="740.0" type="line"/>
      <point x="425.0" y="496.0" type="line"/>
      <point x="385.0" y="523.0"/>
      <point x="336.0" y="539.0"/>
      <point x="287.0" y="539.0" type="curve" smooth="yes"/>
      <point x="146.0" y="539.0"/>
      <point x="44.0" y="438.0"/>
      <point x="44.0" y="261.0" type="curve" smooth="yes"/>
      <point x="44.0" y="87.0"/>
      <point x="139.0" y="-10.0"/>
    </contour>
    <contour>
      <point x="289.0" y="66.0" type="curve" smooth="yes"/>
      <point x="188.0" y="66.0"/>
      <point x="126.0" y="143.0"/>
      <point x="126.0" y="264.0" type="curve" smooth="yes"/>
      <point x="126.0" y="386.0"/>
      <point x="192.0" y="463.0"/>
      <point x="296.0" y="463.0" type="curve" smooth="yes"/>
      <point x="344.0" y="463.0"/>
      <point x="389.0" y="446.0"/>
      <point x="425.0" y="417.0" type="curve"/>
      <point x="425.0" y="149.0" type="line"/>
      <point x="398.0" y="99.0"/>
      <point x="349.0" y="66.0"/>
    </contour>
  </outline>
</glyph>
<glyph name="f" format="2">
  <advance height="1000" width="290"/>
  <unicode hex="0066"/>
  <outline>
    <contour>
      <point x="98" y="0" type="line"/>
      <point x="178" y="0" type="line"/>
      <point x="178" y="453" type="line"/>
      <point x="270" y="453" type="line"/>
      <point x="270" y="529" type="line"/>
      <point x="178" y="529" type="line"/>
      <point x="178" y="565" type="line" smooth="yes"/>
      <point x="178" y="638"/>
      <point x="215" y="677"/>
      <point x="277" y="677" type="curve" smooth="yes"/>
      <point x="305" y="677"/>
      <point x="333" y="672"/>
      <point x="362" y="659" type="curve"/>
      <point x="362" y="734" type="line"/>
      <point x="331" y="746"/>
      <point x="297" y="752"/>
      <point x="265" y="752" type="curve" smooth="yes"/>
      <point x="163" y="752"/>
      <point x="98" y="681"/>
      <point x="98" y="565" type="curve" smooth="yes"/>
      <point x="98" y="529" type="line"/>
      <point x="16" y="529" type="line"/>
      <point x="16" y="453" type="line"/>
      <point x="98" y="453" type="line"/>
    </contour>
  </outline>
</glyph>
<glyph name="g" format="2">
  <advance height="1000" width="570"/>
  <unicode hex="0067"/>
  <outline>
    <contour>
      <point x="261.0" y="-197.0" type="curve" smooth="yes"/>
      <point x="411.0" y="-197.0"/>
      <point x="506.0" y="-102.0"/>
      <point x="506.0" y="44.0" type="curve" smooth="yes"/>
      <point x="506.0" y="529.0" type="line"/>
      <point x="450.0" y="529.0" type="line"/>
      <point x="432.0" y="479.0" type="line"/>
      <point x="391.0" y="522.0"/>
      <point x="346.0" y="539.0"/>
      <point x="283.0" y="539.0" type="curve" smooth="yes"/>
      <point x="149.0" y="539.0"/>
      <point x="44.0" y="437.0"/>
      <point x="44.0" y="270.0" type="curve" smooth="yes"/>
      <point x="44.0" y="108.0"/>
      <point x="137.0" y="4.0"/>
      <point x="276.0" y="4.0" type="curve" smooth="yes"/>
      <point x="338.0" y="4.0"/>
      <point x="390.0" y="25.0"/>
      <point x="427.0" y="68.0" type="curve"/>
      <point x="427.0" y="43.0" type="line" smooth="yes"/>
      <point x="427.0" y="-64.0"/>
      <point x="361.0" y="-121.0"/>
      <point x="261.0" y="-121.0" type="curve" smooth="yes"/>
      <point x="190.0" y="-121.0"/>
      <point x="123.0" y="-95.0"/>
      <point x="68.0" y="-57.0" type="curve"/>
      <point x="68.0" y="-145.0" type="line"/>
      <point x="125.0" y="-177.0"/>
      <point x="197.0" y="-197.0"/>
    </contour>
    <contour>
      <point x="293.0" y="80.0" type="curve" smooth="yes"/>
      <point x="193.0" y="80.0"/>
      <point x="125.0" y="152.0"/>
      <point x="125.0" y="273.0" type="curve" smooth="yes"/>
      <point x="125.0" y="392.0"/>
      <point x="207.0" y="463.0"/>
      <point x="284.0" y="463.0" type="curve" smooth="yes"/>
      <point x="336.0" y="463.0"/>
      <point x="388.0" y="441.0"/>
      <point x="426.0" y="413.0" type="curve"/>
      <point x="426.0" y="141.0" type="line"/>
      <point x="392.0" y="102.0"/>
      <point x="344.0" y="80.0"/>
    </contour>
  </outline>
</glyph>
<glyph name="h" format="2">
  <advance height="1000" width="543"/>
  <unicode hex="0068"/>
  <outline>
    <contour>
      <point x="144" y="0" type="line"/>
      <point x="144" y="382" type="line"/>
      <point x="174" y="430"/>
      <point x="226" y="463"/>
      <point x="282" y="463" type="curve" smooth="yes"/>
      <point x="357" y="463"/>
      <point x="403" y="421"/>
      <point x="403" y="334" type="curve" smooth="yes"/>
      <point x="403" y="0" type="line"/>
      <point x="483" y="0" type="line"/>
      <point x="483" y="351" type="line" smooth="yes"/>
      <point x="483" y="465"/>
      <point x="420" y="539"/>
      <point x="304" y="539" type="curve" smooth="yes"/>
      <point x="241" y="539"/>
      <point x="181" y="510"/>
      <point x="144" y="459" type="curve"/>
      <point x="144" y="740" type="line"/>
      <point x="64" y="740" type="line"/>
      <point x="64" y="0" type="line"/>
    </contour>
  </outline>
</glyph>
<glyph name="k" format="2">
  <advance height="1000" width="511"/>
  <unicode hex="006B"/>
  <outline>
    <contour>
      <point x="64.0" y="0.0" type="line"/>
      <point x="144.0" y="0.0" type="line"/>
      <point x="144.0" y="253.0" type="line"/>
      <point x="384.0" y="0.0" type="line"/>
      <point x="495.0" y="0.0" type="line"/>
      <point x="230.0" y="278.0" type="line"/>
      <point x="479.0" y="529.0" type="line"/>
      <point x="372.0" y="529.0" type="line"/>
      <point x="144.0" y="295.0" type="line"/>
      <point x="144.0" y="740.0" type="line"/>
      <point x="64.0" y="740.0" type="line"/>
    </contour>
  </outline>
</glyph>
<glyph name="n" format="2">
  <advance height="1000" width="543"/>
  <unicode hex="006E"/>
  <outline>
    <contour>
      <point x="64" y="0" type="line"/>
      <point x="144" y="0" type="line"/>
      <point x="144" y="382" type="line"/>
      <point x="174" y="432"/>
      <point x="226" y="463"/>
      <point x="283" y="463" type="curve" smooth="yes"/>
      <point x="357" y="463"/>
      <point x="403" y="421"/>
      <point x="403" y="334" type="curve" smooth="yes"/>
      <point x="403" y="0" type="line"/>
      <point x="483" y="0" type="line"/>
      <point x="483" y="348" type="line" smooth="yes"/>
      <point x="483.0" y="466.0"/>
      <point x="420" y="539"/>
      <point x="304" y="539" type="curve" smooth="yes"/>
      <point x="241" y="539"/>
      <point x="182" y="510"/>
      <point x="144" y="461" type="curve"/>
      <point x="144" y="529" type="line"/>
      <point x="64" y="529" type="line"/>
    </contour>
  </outline>
</glyph>
<glyph name="q" format="2">
  <advance height="1000" width="572"/>
  <unicode hex="0071"/>
  <outline>
    <contour>
      <point x="428.0" y="-189.0" type="line"/>
      <point x="508.0" y="-189.0" type="line"/>
      <point x="508.0" y="529.0" type="line"/>
      <point x="452.0" y="529.0" type="line"/>
      <point x="434.0" y="479.0" type="line"/>
      <point x="396.0" y="518.0"/>
      <point x="348.0" y="539.0"/>
      <point x="287.0" y="539.0" type="curve" smooth="yes"/>
      <point x="146.0" y="539.0"/>
      <point x="44.0" y="429.0"/>
      <point x="44.0" y="261.0" type="curve" smooth="yes"/>
      <point x="44.0" y="98.0"/>
      <point x="135.0" y="-10.0"/>
      <point x="270.0" y="-10.0" type="curve" smooth="yes"/>
      <point x="333.0" y="-10.0"/>
      <point x="387.0" y="15.0"/>
      <point x="428.0" y="53.0" type="curve"/>
    </contour>
    <contour>
      <point x="293.0" y="66.0" type="curve" smooth="yes"/>
      <point x="193.0" y="66.0"/>
      <point x="126.0" y="142.0"/>
      <point x="126.0" y="264.0" type="curve" smooth="yes"/>
      <point x="126.0" y="386.0"/>
      <point x="198.0" y="463.0"/>
      <point x="299.0" y="463.0" type="curve" smooth="yes"/>
      <point x="345.0" y="463.0"/>
      <point x="391.0" y="445.0"/>
      <point x="428.0" y="416.0" type="curve"/>
      <point x="428.0" y="130.0" type="line"/>
      <point x="396.0" y="85.0"/>
      <point x="343.0" y="66.0"/>
    </contour>
  </outline>
</glyph>
<glyph name="r" format="2">
  <advance height="1000" width="337"/>
  <unicode hex="0072"/>
  <outline>
    <contour>
      <point x="64.0" y="0.0" type="line"/>
      <point x="144.0" y="0.0" type="line"/>
      <point x="144.0" y="388.0" type="line"/>
      <point x="172.0" y="432.0"/>
      <point x="212.0" y="458.0"/>
      <point x="255.0" y="458.0" type="curve" smooth="yes"/>
      <point x="281.0" y="458.0"/>
      <point x="302.0" y="454.0"/>
      <point x="329.0" y="442.0" type="curve"/>
      <point x="329.0" y="528.0" type="line"/>
      <point x="307.0" y="536.0"/>
      <point x="290.0" y="540.0"/>
      <point x="267.0" y="540.0" type="curve" smooth="yes"/>
      <point x="219.0" y="540.0"/>
      <point x="174.0" y="515.0"/>
      <point x="144.0" y="453.0" type="curve"/>
      <point x="144.0" y="529.0" type="line"/>
      <point x="64.0" y="529.0" type="line"/>
    </contour>
  </outline>
</glyph>
<glyph name="v" format="2">
  <advance height="1000" width="532"/>
  <unicode hex="0076"/>
  <outline>
    <contour>
      <point x="223.0" y="0.0" type="line"/>
      <point x="309.0" y="0.0" type="line"/>
      <point x="512.0" y="529.0" type="line"/>
      <point x="429.0" y="529.0" type="line"/>
      <point x="268.0" y="98.0" type="line"/>
      <point x="107.0" y="529.0" type="line"/>
      <point x="20.0" y="529.0" type="line"/>
    </contour>
  </outline>
</glyph>
<glyph name="w" format="2">
  <advance height="1000" width="832"/>
  <unicode hex="0077"/>
  <outline>
    <contour>
      <point x="191.0" y="0.0" type="line"/>
      <point x="285.0" y="0.0" type="line"/>
      <point x="416.0" y="419.0" type="line"/>
      <point x="547.0" y="0.0" type="line"/>
      <point x="641.0" y="0.0" type="line"/>
      <point x="812.0" y="529.0" type="line"/>
      <point x="732.0" y="529.0" type="line"/>
      <point x="595.0" y="94.0" type="line"/>
      <point x="458.0" y="529.0" type="line"/>
      <point x="377.0" y="529.0" type="line"/>
      <point x="241.0" y="94.0" type="line"/>
      <point x="104.0" y="529.0" type="line"/>
      <point x="20.0" y="529.0" type="line"/>
    </contour>
  </outline>
</glyph>
<glyph name="x" format="2">
  <advance height="1000" width="501"/>
  <unicode hex="0078"/>
  <outline>
    <contour>
      <point x="16" y="0" type="line"/>
      <point x="109" y="0" type="line"/>
      <point x="249" y="210" type="line"/>
      <point x="389" y="0" type="line"/>
      <point x="485" y="0" type="line"/>
      <point x="297" y="275" type="line"/>
      <point x="470" y="529" type="line"/>
      <point x="379" y="529" type="line"/>
      <point x="253" y="337" type="line"/>
      <point x="127" y="529" type="line"/>
      <point x="32" y="529" type="line"/>
      <point x="204" y="270" type="line"/>
    </contour>
  </outline>
</glyph>
<glyph name="braceleft" format="2">
  <advance height="1000" width="467"/>
  <unicode hex="007B"/>
  <outline>
    <contour>
      <point x="406.0" y="-150.0" type="curve" smooth="yes"/>
      <point x="443.0" y="-150.0" type="line"/>
      <point x="443.0" y="-78.0" type="line"/>
      <point x="414.0" y="-78.0" type="line" smooth="yes"/>
      <point x="318.0" y="-78.0"/>
      <point x="261.0" y="-36.0"/>
      <point x="269.0" y="53.0" type="curve" smooth="yes"/>
      <point x="277.0" y="151.0" type="line" smooth="yes"/>
      <point x="284.0" y="233.0"/>
      <point x="230.0" y="296.0"/>
      <point x="141.0" y="314.0" type="curve"/>
      <point x="230.0" y="332.0"/>
      <point x="285.0" y="394.0"/>
      <point x="277.0" y="477.0" type="curve" smooth="yes"/>
      <point x="269.0" y="575.0" type="line" smooth="yes"/>
      <point x="261.0" y="664.0"/>
      <point x="318.0" y="707.0"/>
      <point x="413.0" y="707.0" type="curve" smooth="yes"/>
      <point x="443.0" y="707.0" type="line"/>
      <point x="443.0" y="779.0" type="line"/>
      <point x="405.0" y="779.0" type="line" smooth="yes"/>
      <point x="261.0" y="779.0"/>
      <point x="180.0" y="705.0"/>
      <point x="190.0" y="588.0" type="curve" smooth="yes"/>
      <point x="198.0" y="480.0" type="line" smooth="yes"/>
      <point x="204.0" y="407.0"/>
      <point x="146.0" y="360.0"/>
      <point x="48.0" y="351.0" type="curve"/>
      <point x="48.0" y="279.0" type="line"/>
      <point x="146.0" y="268.0"/>
      <point x="204.0" y="221.0"/>
      <point x="198.0" y="148.0" type="curve" smooth="yes"/>
      <point x="190.0" y="40.0" type="line" smooth="yes"/>
      <point x="181.0" y="-77.0"/>
      <point x="263.0" y="-150.0"/>
    </contour>
  </outline>
</glyph>
<glyph name="braceright" format="2">
  <advance height="1000" width="467"/>
  <unicode hex="007D"/>
  <outline>
    <contour>
      <point x="24.0" y="-150.0" type="line"/>
      <point x="62.0" y="-150.0" type="line" smooth="yes"/>
      <point x="206.0" y="-150.0"/>
      <point x="287.0" y="-76.0"/>
      <point x="277.0" y="41.0" type="curve" smooth="yes"/>
      <point x="269.0" y="149.0" type="line" smooth="yes"/>
      <point x="263.0" y="222.0"/>
      <point x="321.0" y="269.0"/>
      <point x="419.0" y="278.0" type="curve"/>
      <point x="419.0" y="350.0" type="line"/>
      <point x="321.0" y="361.0"/>
      <point x="263.0" y="408.0"/>
      <point x="269.0" y="481.0" type="curve" smooth="yes"/>
      <point x="277.0" y="589.0" type="line" smooth="yes"/>
      <point x="286.0" y="706.0"/>
      <point x="204.0" y="779.0"/>
      <point x="61.0" y="779.0" type="curve" smooth="yes"/>
      <point x="24.0" y="779.0" type="line"/>
      <point x="24.0" y="707.0" type="line"/>
      <point x="53.0" y="707.0" type="line" smooth="yes"/>
      <point x="149.0" y="707.0"/>
      <point x="206.0" y="665.0"/>
      <point x="198.0" y="576.0" type="curve" smooth="yes"/>
      <point x="190.0" y="478.0" type="line" smooth="yes"/>
      <point x="183.0" y="396.0"/>
      <point x="237.0" y="333.0"/>
      <point x="326.0" y="315.0" type="curve"/>
      <point x="237.0" y="297.0"/>
      <point x="182.0" y="235.0"/>
      <point x="190.0" y="152.0" type="curve" smooth="yes"/>
      <point x="198.0" y="54.0" type="line" smooth="yes"/>
      <point x="206.0" y="-35.0"/>
      <point x="149.0" y="-78.0"/>
      <point x="54.0" y="-78.0" type="curve" smooth="yes"/>
      <point x="24.0" y="-78.0" type="line"/>
    </contour>
  </outline>
</glyph>
<glyph name="questiondown" format="2">
  <advance height="1000" width="465"/>
  <unicode hex="00BF"/>
  <outline>
    <contour>
      <point x="249.0" y="-203.0" type="curve" smooth="yes"/>
      <point x="313.0" y="-203.0"/>
      <point x="373.0" y="-186.0"/>
      <point x="425.0" y="-155.0" type="curve"/>
      <point x="425.0" y="-73.0" type="line"/>
      <point x="376.0" y="-110.0"/>
      <point x="321.0" y="-129.0"/>
      <point x="261.0" y="-129.0" type="curve" smooth="yes"/>
      <point x="176.0" y="-129.0"/>
      <point x="122.0" y="-88.0"/>
      <point x="122.0" y="-11.0" type="curve" smooth="yes"/>
      <point x="122.0" y="47.0"/>
      <point x="148.0" y="86.0"/>
      <point x="193.0" y="134.0" type="curve" smooth="yes"/>
      <point x="258.0" y="201.0"/>
      <point x="291.0" y="280.0"/>
      <point x="291.0" y="367.0" type="curve"/>
      <point x="215.0" y="367.0" type="line"/>
      <point x="215.0" y="300.0"/>
      <point x="187.0" y="236.0"/>
      <point x="132.0" y="177.0" type="curve" smooth="yes"/>
      <point x="74.0" y="116.0"/>
      <point x="40.0" y="61.0"/>
      <point x="40.0" y="-17.0" type="curve" smooth="yes"/>
      <point x="40.0" y="-139.0"/>
      <point x="124.0" y="-203.0"/>
    </contour>
    <contour>
      <point x="207.0" y="463.0" type="line"/>
      <point x="295.0" y="463.0" type="line"/>
      <point x="295.0" y="551.0" type="line"/>
      <point x="207.0" y="551.0" type="line"/>
    </contour>
  </outline>
</glyph>
<glyph name="Eacute" format="2">
  <advance height="1000" width="560"/>
  <unicode hex="00C9"/>
  <outline>
    <contour>
      <point x="76.0" y="0.0" type="line"/>
      <point x="488.0" y="0.0" type="line"/>
      <point x="488.0" y="76.0" type="line"/>
      <point x="158.0" y="76.0" type="line"/>
      <point x="158.0" y="338.0" type="line"/>
      <point x="462.0" y="338.0" type="line"/>
      <point x="462.0" y="414.0" type="line"/>
      <point x="158.0" y="414.0" type="line"/>
      <point x="158.0" y="664.0" type="line"/>
      <point x="476.0" y="664.0" type="line"/>
      <point x="476.0" y="740.0" type="line"/>
      <point x="76.0" y="740.0" type="line"/>
    </contour>
    <contour>
      <point x="324" y="787" type="line"/>
      <point x="442" y="939" type="line"/>
      <point x="352" y="939" type="line"/>
      <point x="242" y="787" type="line"/>
    </contour>
  </outline>
</glyph>
<glyph name="Edieresis" format="2">
  <advance height="1000" width="560"/>
  <unicode hex="00CB"/>
  <outline>
    <contour>
      <point x="76.0" y="0.0" type="line"/>
      <point x="488.0" y="0.0" type="line"/>
      <point x="488.0" y="76.0" type="line"/>
      <point x="158.0" y="76.0" type="line"/>
      <point x="158.0" y="338.0" type="line"/>
      <point x="462.0" y="338.0" type="line"/>
      <point x="462.0" y="414.0" type="line"/>
      <point x="158.0" y="414.0" type="line"/>
      <point x="158.0" y="664.0" type="line"/>
      <point x="476.0" y="664.0" type="line"/>
      <point x="476.0" y="740.0" type="line"/>
      <point x="76.0" y="740.0" type="line"/>
    </contour>
    <contour>
      <point x="157" y="787" type="line"/>
      <point x="239" y="787" type="line"/>
      <point x="239" y="869" type="line"/>
      <point x="157" y="869" type="line"/>
    </contour>
    <contour>
      <point x="325" y="787" type="line"/>
      <point x="407" y="787" type="line"/>
      <point x="407" y="869" type="line"/>
      <point x="325" y="869" type="line"/>
    </contour>
  </outline>
</glyph>
<glyph name="Oacute" format="2">
  <advance height="1000" width="858"/>
  <unicode hex="00D3"/>
  <outline>
    <contour>
      <point x="429.0" y="-15.0" type="curve" smooth="yes"/>
      <point x="658.0" y="-15.0"/>
      <point x="810.0" y="139.0"/>
      <point x="810.0" y="371.0" type="curve" smooth="yes"/>
      <point x="810.0" y="601.0"/>
      <point x="658.0" y="755.0"/>
      <point x="429.0" y="755.0" type="curve" smooth="yes"/>
      <point x="200.0" y="755.0"/>
      <point x="48.0" y="601.0"/>
      <point x="48.0" y="371.0" type="curve" smooth="yes"/>
      <point x="48.0" y="139.0"/>
      <point x="200.0" y="-15.0"/>
    </contour>
    <contour>
      <point x="429.0" y="60.0" type="curve" smooth="yes"/>
      <point x="251.0" y="60.0"/>
      <point x="132.0" y="185.0"/>
      <point x="132.0" y="371.0" type="curve" smooth="yes"/>
      <point x="132.0" y="556.0"/>
      <point x="251.0" y="680.0"/>
      <point x="429.0" y="680.0" type="curve" smooth="yes"/>
      <point x="607.0" y="680.0"/>
      <point x="726.0" y="556.0"/>
      <point x="726.0" y="371.0" type="curve" smooth="yes"/>
      <point x="726.0" y="185.0"/>
      <point x="607.0" y="60.0"/>
    </contour>
    <contour>
      <point x="467" y="787" type="line"/>
      <point x="585" y="939" type="line"/>
      <point x="495" y="939" type="line"/>
      <point x="385" y="787" type="line"/>
    </contour>
  </outline>
</glyph>
<glyph name="eacute" format="2">
  <advance height="1000" width="555"/>
  <unicode hex="00E9"/>
  <outline>
    <contour>
      <point x="304.0" y="-10.0" type="curve" smooth="yes"/>
      <point x="369.0" y="-10.0"/>
      <point x="434.0" y="9.0"/>
      <point x="498.0" y="46.0" type="curve"/>
      <point x="498.0" y="131.0" type="line"/>
      <point x="437.0" y="87.0"/>
      <point x="375.0" y="66.0"/>
      <point x="312.0" y="66.0" type="curve" smooth="yes"/>
      <point x="195.0" y="66.0"/>
      <point x="128.0" y="141.0"/>
      <point x="128.0" y="238.0" type="curve" smooth="yes"/>
      <point x="128.0" y="240.0" type="line"/>
      <point x="511.0" y="240.0" type="line"/>
      <point x="511.0" y="276.0" type="line" smooth="yes"/>
      <point x="511.0" y="443.0"/>
      <point x="425.0" y="539.0"/>
      <point x="284.0" y="539.0" type="curve" smooth="yes"/>
      <point x="138.0" y="539.0"/>
      <point x="44.0" y="428.0"/>
      <point x="44.0" y="266.0" type="curve" smooth="yes"/>
      <point x="44.0" y="95.0"/>
      <point x="138.0" y="-10.0"/>
    </contour>
    <contour>
      <point x="283.0" y="463.0" type="curve" smooth="yes"/>
      <point x="372.0" y="463.0"/>
      <point x="427.0" y="412.0"/>
      <point x="427.0" y="312.0" type="curve"/>
      <point x="128.0" y="312.0" type="line"/>
      <point x="135.0" y="408.0"/>
      <point x="196.0" y="463.0"/>
    </contour>
    <contour>
      <point x="321" y="596" type="line"/>
      <point x="439" y="748" type="line"/>
      <point x="349" y="748" type="line"/>
      <point x="239" y="596" type="line"/>
    </contour>
  </outline>
</glyph>
<glyph name="Theta" format="2">
  <advance height="1000" width="858"/>
  <unicode hex="0398"/>
  <outline>
    <contour>
      <point x="262.0" y="336.0" type="line"/>
      <point x="592.0" y="336.0" type="line"/>
      <point x="592.0" y="412.0" type="line"/>
      <point x="262.0" y="412.0" type="line"/>
    </contour>
    <contour>
      <point x="429.0" y="-15.0" type="curve" smooth="yes"/>
      <point x="658.0" y="-15.0"/>
      <point x="810.0" y="139.0"/>
      <point x="810.0" y="371.0" type="curve" smooth="yes"/>
      <point x="810.0" y="601.0"/>
      <point x="658.0" y="755.0"/>
      <point x="429.0" y="755.0" type="curve" smooth="yes"/>
      <point x="200.0" y="755.0"/>
      <point x="48.0" y="601.0"/>
      <point x="48.0" y="371.0" type="curve" smooth="yes"/>
      <point x="48.0" y="139.0"/>
      <point x="200.0" y="-15.0"/>
    </contour>
    <contour>
      <point x="429.0" y="60.0" type="curve" smooth="yes"/>
      <point x="251.0" y="60.0"/>
      <point x="132.0" y="185.0"/>
      <point x="132.0" y="371.0" type="curve" smooth="yes"/>
      <point x="132.0" y="556.0"/>
      <point x="251.0" y="680.0"/>
      <point x="429.0" y="680.0" type="curve" smooth="yes"/>
      <point x="607.0" y="680.0"/>
      <point x="726.0" y="556.0"/>
      <point x="726.0" y="371.0" type="curve" smooth="yes"/>
      <point x="726.0" y="185.0"/>
      <point x="607.0" y="60.0"/>
    </contour>
  </outline>
</glyph>
<glyph name="Kappa" format="2">
  <advance height="1000" width="634"/>
  <unicode hex="039A"/>
  <outline>
    <contour>
      <point x="76.0" y="0.0" type="line"/>
      <point x="158.0" y="0.0" type="line"/>
      <point x="158.0" y="358.0" type="line"/>
      <point x="497.0" y="0.0" type="line"/>
      <point x="610.0" y="0.0" type="line"/>
      <point x="244.0" y="384.0" type="line"/>
      <point x="592.0" y="740.0" type="line"/>
      <point x="485.0" y="740.0" type="line"/>
      <point x="158.0" y="397.0" type="line"/>
      <point x="158.0" y="740.0" type="line"/>
      <point x="76.0" y="740.0" type="line"/>
    </contour>
  </outline>
</glyph>
<glyph name="Lambda" format="2">
  <advance height="1000" width="706"/>
  <unicode hex="039B"/>
  <outline>
    <contour>
      <point x="20" y="0" type="line"/>
      <point x="108" y="0" type="line"/>
      <point x="351" y="627" type="line"/>
      <point x="594" y="0" type="line"/>
      <point x="686" y="0" type="line"/>
      <point x="392" y="740" type="line"/>
      <point x="314" y="740" type="line"/>
    </contour>
  </outline>
</glyph>
<glyph name="Mu" format="2">
  <advance height="1000" width="864"/>
  <unicode hex="039C"/>
  <outline>
    <contour>
      <point x="76.0" y="0.0" type="line"/>
      <point x="152.0" y="0.0" type="line"/>
      <point x="152.0" y="655.0" type="line"/>
      <point x="393.0" y="142.0" type="line"/>
      <point x="465.0" y="142.0" type="line"/>
      <point x="706.0" y="655.0" type="line"/>
      <point x="706.0" y="0.0" type="line"/>
      <point x="788.0" y="0.0" type="line"/>
      <point x="788.0" y="740.0" type="line"/>
      <point x="662.0" y="740.0" type="line"/>
      <point x="432.0" y="252.0" type="line"/>
      <point x="202.0" y="740.0" type="line"/>
      <point x="76.0" y="740.0" type="line"/>
    </contour>
  </outline>
</glyph>
<glyph name="Nu" format="2">
  <advance height="1000" width="781"/>
  <unicode hex="039D"/>
  <outline>
    <contour>
      <point x="76.0" y="0.0" type="line"/>
      <point x="152.0" y="0.0" type="line"/>
      <point x="152.0" y="615.0" type="line"/>
      <point x="620.0" y="0.0" type="line"/>
      <point x="705.0" y="0.0" type="line"/>
      <point x="705.0" y="740.0" type="line"/>
      <point x="629.0" y="740.0" type="line"/>
      <point x="629.0" y="123.0" type="line"/>
      <point x="161.0" y="740.0" type="line"/>
      <point x="76.0" y="740.0" type="line"/>
    </contour>
  </outline>
</glyph>
<glyph name="Xi" format="2">
  <advance height="1000" width="732"/>
  <unicode hex="039E"/>
  <outline>
    <contour>
      <point x="96" y="740" type="line"/>
      <point x="96" y="658" type="line"/>
      <point x="636" y="658" type="line"/>
      <point x="636" y="740" type="line"/>
    </contour>
    <contour>
      <point x="115" y="416" type="line"/>
      <point x="115" y="338" type="line"/>
      <point x="617" y="338" type="line"/>
      <point x="617" y="416" type="line"/>
    </contour>
    <contour>
      <point x="84" y="82" type="line"/>
      <point x="84" y="0" type="line"/>
      <point x="648" y="0" type="line"/>
      <point x="648" y="82" type="line"/>
    </contour>
  </outline>
</glyph>
<glyph name="Pi" format="2">
  <advance height="1000" width="708"/>
  <unicode hex="03A0"/>
  <outline>
    <contour>
      <point x="76" y="0" type="line"/>
      <point x="158" y="0" type="line"/>
      <point x="158" y="664" type="line"/>
      <point x="550" y="664" type="line"/>
      <point x="550" y="0" type="line"/>
      <point x="632" y="0" type="line"/>
      <point x="632" y="740" type="line"/>
      <point x="76" y="740" type="line"/>
    </contour>
  </outline>
</glyph>
<glyph name="Chi" format="2">
  <advance height="1000" width="642"/>
  <unicode hex="03A7"/>
  <outline>
    <contour>
      <point x="117.0" y="0.0" type="line"/>
      <point x="319.0" y="300.0" type="line"/>
      <point x="519.0" y="0.0" type="line"/>
      <point x="618.0" y="0.0" type="line"/>
      <point x="365.0" y="372.0" type="line"/>
      <point x="613.0" y="740.0" type="line"/>
      <point x="521.0" y="740.0" type="line"/>
      <point x="324.0" y="438.0" type="line"/>
      <point x="128.0" y="740.0" type="line"/>
      <point x="29.0" y="740.0" type="line"/>
      <point x="277.0" y="368.0" type="line"/>
      <point x="24.0" y="0.0" type="line"/>
    </contour>
  </outline>
</glyph>
<glyph name="Upsilondieresis" format="2">
  <advance height="1000" width="645"/>
  <unicode hex="03AB"/>
  <outline>
    <contour>
      <point x="282" y="0" type="line"/>
      <point x="364" y="0" type="line"/>
      <point x="364" y="322" type="line"/>
      <point x="633" y="740" type="line"/>
      <point x="542" y="740" type="line"/>
      <point x="325" y="396" type="line"/>
      <point x="109" y="740" type="line"/>
      <point x="12" y="740" type="line"/>
      <point x="282" y="321" type="line"/>
    </contour>
    <contour>
      <point x="198" y="787" type="line"/>
      <point x="280" y="787" type="line"/>
      <point x="280" y="869" type="line"/>
      <point x="198" y="869" type="line"/>
    </contour>
    <contour>
      <point x="366" y="787" type="line"/>
      <point x="448" y="787" type="line"/>
      <point x="448" y="869" type="line"/>
      <point x="366" y="869" type="line"/>
    </contour>
  </outline>
</glyph>
<glyph name="beta" format="2">
  <advance height="1000" width="560"/>
  <unicode hex="03B2"/>
  <outline>
    <contour>
      <point x="73.0" y="-150.0" type="curve"/>
      <point x="154.0" y="-150.0" type="line"/>
      <point x="147.0" y="-120.0"/>
      <point x="144.0" y="-71.0"/>
      <point x="144.0" y="-22.0" type="curve" smooth="yes"/>
      <point x="144.0" y="518.0" type="line" smooth="yes"/>
      <point x="144" y="614"/>
      <point x="195.0" y="675.0"/>
      <point x="281.0" y="675.0" type="curve" smooth="yes"/>
      <point x="357.0" y="675.0"/>
      <point x="409.0" y="631.0"/>
      <point x="409.0" y="564.0" type="curve" smooth="yes"/>
      <point x="410.0" y="480.0"/>
      <point x="345.0" y="424.0"/>
      <point x="247.0" y="419.0" type="curve"/>
      <point x="247.0" y="360.0" type="line"/>
      <point x="376.0" y="327.0"/>
      <point x="435.0" y="273.0"/>
      <point x="435.0" y="185.0" type="curve" smooth="yes"/>
      <point x="435.0" y="109.0"/>
      <point x="380.0" y="65.0"/>
      <point x="305" y="65" type="curve" smooth="yes"/>
      <point x="229.0" y="65.0"/>
      <point x="181.0" y="87.0"/>
      <point x="137.0" y="131.0" type="curve"/>
      <point x="137.0" y="43.0" type="line"/>
      <point x="185.0" y="8.0"/>
      <point x="235.0" y="-10.0"/>
      <point x="309" y="-10.0" type="curve" smooth="yes"/>
      <point x="427.0" y="-10.0"/>
      <point x="516.0" y="69.0"/>
      <point x="516.0" y="189.0" type="curve" smooth="yes"/>
      <point x="516.0" y="298.0"/>
      <point x="448.0" y="370.0"/>
      <point x="310.0" y="405.0" type="curve"/>
      <point x="309.0" y="385.0" type="line"/>
      <point x="418.0" y="402.0"/>
      <point x="490.0" y="478.0"/>
      <point x="490.0" y="571.0" type="curve" smooth="yes"/>
      <point x="490.0" y="678.0"/>
      <point x="407.0" y="750.0"/>
      <point x="283.0" y="750.0" type="curve" smooth="yes"/>
      <point x="150.0" y="750.0"/>
      <point x="64" y="657"/>
      <point x="64.0" y="518.0" type="curve" smooth="yes"/>
      <point x="64.0" y="-22.0" type="line" smooth="yes"/>
      <point x="64.0" y="-68.0"/>
      <point x="68.0" y="-115.0"/>
    </contour>
  </outline>
</glyph>
<glyph name="gamma" format="2">
  <advance height="1000" width="506"/>
  <unicode hex="03B3"/>
  <outline>
    <contour>
      <point x="224.0" y="-189.0" type="line"/>
      <point x="304.0" y="-189.0" type="line"/>
      <point x="304.0" y="13.0" type="line"/>
      <point x="443.0" y="351.0" type="line" smooth="yes"/>
      <point x="469.0" y="415.0"/>
      <point x="484.0" y="473.0"/>
      <point x="486.0" y="529.0" type="curve"/>
      <point x="408.0" y="529.0" type="line"/>
      <point x="406.0" y="479.0"/>
      <point x="395.0" y="427.0"/>
      <point x="371.0" y="368.0" type="curve" smooth="yes"/>
      <point x="269.0" y="112.0" type="line"/>
      <point x="106.0" y="529.0" type="line"/>
      <point x="20.0" y="529.0" type="line"/>
      <point x="224.0" y="13.0" type="line"/>
    </contour>
  </outline>
</glyph>
<glyph name="epsilon" format="2">
  <advance height="1000" width="462"/>
  <unicode hex="03B5"/>
  <outline>
    <contour>
      <point x="238.0" y="-12.0" type="curve" smooth="yes"/>
      <point x="304.0" y="-12.0"/>
      <point x="372.0" y="5"/>
      <point x="420.0" y="35" type="curve"/>
      <point x="420.0" y="115" type="line"/>
      <point x="374.0" y="84"/>
      <point x="310.0" y="64"/>
      <point x="250.0" y="64" type="curve" smooth="yes"/>
      <point x="170.0" y="64"/>
      <point x="121.0" y="90"/>
      <point x="121.0" y="146" type="curve" smooth="yes"/>
      <point x="121.0" y="208"/>
      <point x="183" y="233"/>
      <point x="278.0" y="233" type="curve" smooth="yes"/>
      <point x="343.0" y="233" type="line"/>
      <point x="343.0" y="309" type="line"/>
      <point x="277.0" y="309" type="line" smooth="yes"/>
      <point x="184" y="309"/>
      <point x="131.0" y="332"/>
      <point x="131.0" y="385" type="curve" smooth="yes"/>
      <point x="131.0" y="441"/>
      <point x="179.0" y="465"/>
      <point x="263.0" y="465" type="curve" smooth="yes"/>
      <point x="311.0" y="465"/>
      <point x="364.0" y="451"/>
      <point x="404.0" y="430" type="curve"/>
      <point x="404.0" y="507" type="line"/>
      <point x="356.0" y="529"/>
      <point x="299.0" y="541"/>
      <point x="250.0" y="541" type="curve" smooth="yes"/>
      <point x="126.0" y="541"/>
      <point x="49.0" y="488"/>
      <point x="49.0" y="395" type="curve" smooth="yes"/>
      <point x="49.0" y="331"/>
      <point x="98.0" y="286"/>
      <point x="171.0" y="270" type="curve"/>
      <point x="90.0" y="253"/>
      <point x="39.0" y="202"/>
      <point x="39.0" y="130" type="curve" smooth="yes"/>
      <point x="39.0" y="40"/>
      <point x="117.0" y="-12.0"/>
    </contour>
  </outline>
</glyph>
<glyph name="eta" format="2">
  <advance height="1000" width="551"/>
  <unicode hex="03B7"/>
  <outline>
    <contour>
      <point x="65" y="0" type="line"/>
      <point x="145" y="0" type="line"/>
      <point x="145" y="382" type="line"/>
      <point x="175" y="432"/>
      <point x="227" y="463"/>
      <point x="284" y="463" type="curve" smooth="yes"/>
      <point x="358" y="463"/>
      <point x="404" y="421"/>
      <point x="404.0" y="334" type="curve" smooth="yes"/>
      <point x="404" y="-23" type="line" smooth="yes"/>
      <point x="404.0" y="-69.0"/>
      <point x="409" y="-117"/>
      <point x="418" y="-150" type="curve"/>
      <point x="498" y="-150" type="line"/>
      <point x="488" y="-114"/>
      <point x="484.0" y="-66.0"/>
      <point x="484" y="-23" type="curve" smooth="yes"/>
      <point x="484.0" y="348" type="line" smooth="yes"/>
      <point x="484" y="466"/>
      <point x="420" y="539"/>
      <point x="305" y="539" type="curve" smooth="yes"/>
      <point x="242" y="539"/>
      <point x="182" y="509"/>
      <point x="145" y="457" type="curve"/>
      <point x="145" y="529" type="line"/>
      <point x="65" y="529" type="line"/>
    </contour>
  </outline>
</glyph>
<glyph name="theta" format="2">
  <advance height="1000" width="610"/>
  <unicode hex="03B8"/>
  <outline>
    <contour>
      <point x="305.0" y="-12.0" type="curve" smooth="yes"/>
      <point x="456.0" y="-12.0"/>
      <point x="558.0" y="144.0"/>
      <point x="558.0" y="373.0" type="curve" smooth="yes"/>
      <point x="558.0" y="603.0"/>
      <point x="456.0" y="752.0"/>
      <point x="305.0" y="752.0" type="curve" smooth="yes"/>
      <point x="153.0" y="752.0"/>
      <point x="52.0" y="604.0"/>
      <point x="52.0" y="374.0" type="curve" smooth="yes"/>
      <point x="52.0" y="145.0"/>
      <point x="153.0" y="-12.0"/>
    </contour>
    <contour>
      <point x="305.0" y="64.0" type="curve" smooth="yes"/>
      <point x="202.0" y="64.0"/>
      <point x="134.0" y="183.0"/>
      <point x="134.0" y="373.0" type="curve" smooth="yes"/>
      <point x="134.0" y="563.0"/>
      <point x="202.0" y="676.0"/>
      <point x="305.0" y="676.0" type="curve" smooth="yes"/>
      <point x="408.0" y="676.0"/>
      <point x="476.0" y="563.0"/>
      <point x="476.0" y="371.0" type="curve" smooth="yes"/>
      <point x="476.0" y="182.0"/>
      <point x="408.0" y="64.0"/>
    </contour>
    <contour>
      <point x="94.0" y="339.0" type="line"/>
      <point x="513.0" y="339.0" type="line"/>
      <point x="513.0" y="415.0" type="line"/>
      <point x="94.0" y="415.0" type="line"/>
    </contour>
  </outline>
</glyph>
<glyph name="lambda" format="2">
  <advance height="1000" width="519"/>
  <unicode hex="03BB"/>
  <outline>
    <contour>
      <point x="20.0" y="0.0" type="line"/>
      <point x="104.0" y="0.0" type="line"/>
      <point x="258.0" y="397.0" type="line"/>
      <point x="412.0" y="0.0" type="line"/>
      <point x="499.0" y="0.0" type="line"/>
      <point x="226.0" y="671.0" type="line" smooth="yes"/>
      <point x="196.0" y="744.0"/>
      <point x="149.0" y="774.0"/>
      <point x="82.0" y="774.0" type="curve" smooth="yes"/>
      <point x="59.0" y="774.0"/>
      <point x="37.0" y="768.0"/>
      <point x="21.0" y="763.0" type="curve"/>
      <point x="21.0" y="691.0" type="line"/>
      <point x="36.0" y="698.0"/>
      <point x="57.0" y="702.0"/>
      <point x="71.0" y="702.0" type="curve" smooth="yes"/>
      <point x="111.0" y="702.0"/>
      <point x="136.0" y="688.0"/>
      <point x="157.0" y="638.0" type="curve" smooth="yes"/>
      <point x="217.0" y="492.0" type="line"/>
    </contour>
  </outline>
</glyph>
<glyph name="rho" format="2">
  <advance height="1000" width="622"/>
  <unicode hex="03C1"/>
  <outline>
    <contour>
      <point x="74.0" y="-150.0" type="curve"/>
      <point x="154.0" y="-150.0" type="line"/>
      <point x="146.0" y="-121.0"/>
      <point x="140.0" y="-67.0"/>
      <point x="140.0" y="-15.0" type="curve" smooth="yes"/>
      <point x="140.0" y="155.0" type="line"/>
      <point x="103.0" y="155.0" type="line"/>
      <point x="138.0" y="55.0"/>
      <point x="225.0" y="-12.0"/>
      <point x="319.0" y="-12.0" type="curve" smooth="yes"/>
      <point x="474.0" y="-12.0"/>
      <point x="578.0" y="99.0"/>
      <point x="578.0" y="265.0" type="curve" smooth="yes"/>
      <point x="578.0" y="431.0"/>
      <point x="474.0" y="541.0"/>
      <point x="319.0" y="541.0" type="curve" smooth="yes"/>
      <point x="165.0" y="541.0"/>
      <point x="60.0" y="431.0"/>
      <point x="60.0" y="265.0" type="curve" smooth="yes"/>
      <point x="60.0" y="-15.0" type="line" smooth="yes"/>
      <point x="60.0" y="-64.0"/>
      <point x="66.0" y="-118.0"/>
    </contour>
    <contour>
      <point x="319.0" y="62.0" type="curve" smooth="yes"/>
      <point x="213.0" y="62.0"/>
      <point x="141.0" y="143.0"/>
      <point x="141.0" y="265.0" type="curve" smooth="yes"/>
      <point x="141.0" y="386.0"/>
      <point x="213.0" y="467.0"/>
      <point x="319.0" y="467.0" type="curve" smooth="yes"/>
      <point x="425.0" y="467.0"/>
      <point x="496.0" y="386.0"/>
      <point x="496.0" y="265.0" type="curve" smooth="yes"/>
      <point x="496.0" y="143.0"/>
      <point x="425.0" y="62.0"/>
    </contour>
  </outline>
</glyph>
<glyph name="sigma" format="2">
  <advance height="1000" width="611"/>
  <unicode hex="03C3"/>
  <outline>
    <contour>
      <point x="307.0" y="64.0" type="curve" smooth="yes"/>
      <point x="198.0" y="64.0"/>
      <point x="126.0" y="142.0"/>
      <point x="126.0" y="259.0" type="curve" smooth="yes"/>
      <point x="126.0" y="375.0"/>
      <point x="198.0" y="453.0"/>
      <point x="307.0" y="453.0" type="curve" smooth="yes"/>
      <point x="416.0" y="453.0"/>
      <point x="488.0" y="376.0"/>
      <point x="488.0" y="259.0" type="curve" smooth="yes"/>
      <point x="488.0" y="143.0"/>
      <point x="416.0" y="64.0"/>
    </contour>
    <contour>
      <point x="307.0" y="-12.0" type="curve" smooth="yes"/>
      <point x="464.0" y="-12.0"/>
      <point x="569.0" y="96.0"/>
      <point x="569.0" y="259.0" type="curve" smooth="yes"/>
      <point x="569.0" y="336.0"/>
      <point x="528.0" y="411.0"/>
      <point x="466.0" y="453.0" type="curve"/>
      <point x="587.0" y="453.0" type="line"/>
      <point x="587.0" y="529.0" type="line"/>
      <point x="307.0" y="529.0" type="line" smooth="yes"/>
      <point x="149.0" y="529.0"/>
      <point x="44.0" y="421.0"/>
      <point x="44.0" y="259.0" type="curve" smooth="yes"/>
      <point x="44.0" y="96.0"/>
      <point x="149.0" y="-12.0"/>
    </contour>
  </outline>
</glyph>
<glyph name="tau" format="2">
  <advance height="1000" width="404"/>
  <unicode hex="03C4"/>
  <outline>
    <contour>
      <point x="256.0" y="-8.0" type="curve" smooth="yes"/>
      <point x="284.0" y="-8.0"/>
      <point x="313.0" y="-3.0"/>
      <point x="339.0" y="9.0" type="curve"/>
      <point x="339.0" y="83.0" type="line"/>
      <point x="322.0" y="73.0"/>
      <point x="306.0" y="68.0"/>
      <point x="287.0" y="68.0" type="curve" smooth="yes"/>
      <point x="251.0" y="68.0"/>
      <point x="236.0" y="92.0"/>
      <point x="236.0" y="136.0" type="curve" smooth="yes"/>
      <point x="236.0" y="453.0" type="line"/>
      <point x="372.0" y="453.0" type="line"/>
      <point x="372.0" y="529.0" type="line"/>
      <point x="32.0" y="529.0" type="line"/>
      <point x="32.0" y="453.0" type="line"/>
      <point x="156.0" y="453.0" type="line"/>
      <point x="156.0" y="110.0" type="line" smooth="yes"/>
      <point x="156.0" y="37.0"/>
      <point x="190.0" y="-8.0"/>
    </contour>
  </outline>
</glyph>
<glyph name="upsilon" format="2">
  <advance height="1000" width="543"/>
  <unicode hex="03C5"/>
  <outline>
    <contour>
      <point x="263.0" y="-12.0" type="curve" smooth="yes"/>
      <point x="397.1935483870967" y="-12.0"/>
      <point x="487.0" y="95.0"/>
      <point x="487.0" y="294.0" type="curve" smooth="yes"/>
      <point x="487.0" y="386.0"/>
      <point x="476.0" y="474.0"/>
      <point x="459.0" y="529.0" type="curve"/>
      <point x="379.0" y="529.0" type="line"/>
      <point x="397.0" y="469.0"/>
      <point x="407.0" y="378.0"/>
      <point x="407.0" y="294.0" type="curve" smooth="yes"/>
      <point x="407.0" y="156.0"/>
      <point x="357.5985401459854" y="60.0"/>
      <point x="263.0" y="60.0" type="curve" smooth="yes"/>
      <point x="181.63076923076926" y="60.0"/>
      <point x="140.0" y="114.00000000000001"/>
      <point x="140.0" y="226.0" type="curve" smooth="yes"/>
      <point x="140.0" y="529.0" type="line"/>
      <point x="60.0" y="529.0" type="line"/>
      <point x="60.0" y="223.0" type="line" smooth="yes"/>
      <point x="60.0" y="70.0"/>
      <point x="141.2" y="-12.0"/>
    </contour>
  </outline>
</glyph>
<glyph name="chi" format="2">
  <advance height="1000" width="498"/>
  <unicode hex="03C7"/>
  <outline>
    <contour>
      <point x="20.0" y="-150.0" type="line"/>
      <point x="105.0" y="-150.0" type="line"/>
      <point x="474.0" y="529.0" type="line"/>
      <point x="389.0" y="529.0" type="line"/>
    </contour>
    <contour>
      <point x="390.0" y="-150.0" type="line"/>
      <point x="478.0" y="-150.0" type="line"/>
      <point x="115.0" y="529.0" type="line"/>
      <point x="27.0" y="529.0" type="line"/>
    </contour>
  </outline>
</glyph>
<glyph name="omega" format="2">
  <advance height="1000" width="814"/>
  <unicode hex="03C9"/>
  <outline>
    <contour>
      <point x="247.0" y="-3.0" type="curve" smooth="yes"/>
      <point x="333.0" y="-3.0"/>
      <point x="387.0" y="50.0"/>
      <point x="409.0" y="130.0" type="curve"/>
      <point x="435.0" y="48.0"/>
      <point x="493.0" y="-3.0"/>
      <point x="573.0" y="-3.0" type="curve" smooth="yes"/>
      <point x="695.0" y="-3.0"/>
      <point x="762.0" y="80.0"/>
      <point x="762.0" y="251.0" type="curve" smooth="yes"/>
      <point x="762.0" y="353.0"/>
      <point x="745.0" y="450.0"/>
      <point x="712.0" y="529.0" type="curve"/>
      <point x="627.0" y="529.0" type="line"/>
      <point x="660.0" y="456.0"/>
      <point x="680.0" y="360.0"/>
      <point x="680.0" y="261.0" type="curve" smooth="yes"/>
      <point x="680.0" y="133.0"/>
      <point x="641.0" y="73.0"/>
      <point x="561.0" y="73.0" type="curve" smooth="yes"/>
      <point x="491.0" y="73.0"/>
      <point x="447.0" y="139.0"/>
      <point x="447.0" y="258.0" type="curve" smooth="yes"/>
      <point x="447.0" y="529.0" type="line"/>
      <point x="367.0" y="529.0" type="line"/>
      <point x="367.0" y="256.0" type="line" smooth="yes"/>
      <point x="367.0" y="133.0"/>
      <point x="320.0" y="73.0"/>
      <point x="251.0" y="73.0" type="curve" smooth="yes"/>
      <point x="173.0" y="73.0"/>
      <point x="134.0" y="134.0"/>
      <point x="134.0" y="263.0" type="curve" smooth="yes"/>
      <point x="134.0" y="359.0"/>
      <point x="154.0" y="452.0"/>
      <point x="187.0" y="529.0" type="curve"/>
      <point x="103.0" y="529.0" type="line"/>
      <point x="71.0" y="444.0"/>
      <point x="52.0" y="348.0"/>
      <point x="52.0" y="251.0" type="curve" smooth="yes"/>
      <point x="52.0" y="83.0"/>
      <point x="122.0" y="-3.0"/>
    </contour>
  </outline>
</glyph>
<glyph name="upsilondieresis" format="2">
  <advance height="1000" width="553"/>
  <unicode hex="03CB"/>
  <outline>
    <contour>
      <point x="263.0" y="-12.0" type="curve" smooth="yes"/>
      <point x="397.1935483870967" y="-12.0"/>
      <point x="487.0" y="95.0"/>
      <point x="487.0" y="294.0" type="curve" smooth="yes"/>
      <point x="487.0" y="386.0"/>
      <point x="476.0" y="474.0"/>
      <point x="459.0" y="529.0" type="curve"/>
      <point x="379.0" y="529.0" type="line"/>
      <point x="397.0" y="469.0"/>
      <point x="407.0" y="378.0"/>
      <point x="407.0" y="294.0" type="curve" smooth="yes"/>
      <point x="407.0" y="156.0"/>
      <point x="357.5985401459854" y="60.0"/>
      <point x="263.0" y="60.0" type="curve" smooth="yes"/>
      <point x="181.63076923076926" y="60.0"/>
      <point x="140.0" y="114.00000000000001"/>
      <point x="140.0" y="226.0" type="curve" smooth="yes"/>
      <point x="140.0" y="529.0" type="line"/>
      <point x="60.0" y="529.0" type="line"/>
      <point x="60.0" y="223.0" type="line" smooth="yes"/>
      <point x="60.0" y="70.0"/>
      <point x="141.2" y="-12.0"/>
    </contour>
    <contour>
      <point x="152" y="596" type="line"/>
      <point x="234" y="596" type="line"/>
      <point x="234" y="678" type="line"/>
      <point x="152" y="678" type="line"/>
    </contour>
    <contour>
      <point x="320" y="596" type="line"/>
      <point x="402" y="596" type="line"/>
      <point x="402" y="678" type="line"/>
      <point x="320" y="678" type="line"/>
    </contour>
  </outline>
</glyph>
<glyph name="IEgravecyrillic" format="2">
  <advance height="1000" width="560"/>
  <unicode hex="0400"/>
  <outline>
    <contour>
      <point x="76.0" y="0.0" type="line"/>
      <point x="488.0" y="0.0" type="line"/>
      <point x="488.0" y="76.0" type="line"/>
      <point x="158.0" y="76.0" type="line"/>
      <point x="158.0" y="338.0" type="line"/>
      <point x="462.0" y="338.0" type="line"/>
      <point x="462.0" y="414.0" type="line"/>
      <point x="158.0" y="414.0" type="line"/>
      <point x="158.0" y="664.0" type="line"/>
      <point x="476.0" y="664.0" type="line"/>
      <point x="476.0" y="740.0" type="line"/>
      <point x="76.0" y="740.0" type="line"/>
    </contour>
    <contour>
      <point x="254" y="787" type="line"/>
      <point x="336" y="787" type="line"/>
      <point x="226" y="939" type="line"/>
      <point x="136" y="939" type="line"/>
    </contour>
  </outline>
</glyph>
<glyph name="Djecyrillic" format="2">
  <advance height="1000" width="840"/>
  <unicode hex="0402"/>
  <outline>
    <contour>
      <point x="267" y="0" type="line"/>
      <point x="349" y="0" type="line"/>
      <point x="349" y="339" type="line"/>
      <point x="391" y="369"/>
      <point x="445" y="389"/>
      <point x="513" y="389" type="curve" smooth="yes"/>
      <point x="633" y="389"/>
      <point x="702" y="328"/>
      <point x="702" y="164" type="curve" smooth="yes"/>
      <point x="702" y="4"/>
      <point x="629" y="-60"/>
      <point x="537" y="-60" type="curve" smooth="yes"/>
      <point x="500" y="-60"/>
      <point x="468" y="-50"/>
      <point x="441" y="-35" type="curve"/>
      <point x="441" y="-115" type="line"/>
      <point x="467" y="-127"/>
      <point x="502" y="-136"/>
      <point x="540" y="-136" type="curve" smooth="yes"/>
      <point x="672" y="-136"/>
      <point x="784" y="-46"/>
      <point x="784" y="166" type="curve" smooth="yes"/>
      <point x="784" y="380"/>
      <point x="686" y="465"/>
      <point x="532" y="465" type="curve" smooth="yes"/>
      <point x="452" y="465"/>
      <point x="395" y="445"/>
      <point x="349" y="415" type="curve"/>
      <point x="349" y="664" type="line"/>
      <point x="606" y="664" type="line"/>
      <point x="606" y="740" type="line"/>
      <point x="20" y="740" type="line"/>
      <point x="20" y="664" type="line"/>
      <point x="267" y="664" type="line"/>
    </contour>
  </outline>
</glyph>
<glyph name="Gjecyrillic" format="2">
  <advance height="1000" width="506"/>
  <unicode hex="0403"/>
  <outline>
    <contour>
      <point x="76" y="0" type="line"/>
      <point x="158" y="0" type="line"/>
      <point x="158" y="664" type="line"/>
      <point x="486" y="664" type="line"/>
      <point x="486" y="740" type="line"/>
      <point x="76" y="740" type="line"/>
    </contour>
    <contour>
      <point x="311" y="787" type="line"/>
      <point x="429" y="939" type="line"/>
      <point x="339" y="939" type="line"/>
      <point x="229" y="787" type="line"/>
    </contour>
  </outline>
</glyph>
<glyph name="Yicyrillic" format="2">
  <advance height="1000" width="234"/>
  <unicode hex="0407"/>
  <outline>
    <contour>
      <point x="76" y="0" type="line"/>
      <point x="158" y="0" type="line"/>
      <point x="158" y="740" type="line"/>
      <point x="76" y="740" type="line"/>
    </contour>
    <contour>
      <point x="-8" y="788" type="line"/>
      <point x="74" y="788" type="line"/>
      <point x="74" y="870" type="line"/>
      <point x="-8" y="870" type="line"/>
    </contour>
    <contour>
      <point x="160" y="788" type="line"/>
      <point x="242" y="788" type="line"/>
      <point x="242" y="870" type="line"/>
      <point x="160" y="870" type="line"/>
    </contour>
  </outline>
</glyph>
<glyph name="Jecyrillic" format="2">
  <advance height="1000" width="342"/>
  <unicode hex="0408"/>
  <outline>
    <contour>
      <point x="130" y="-10" type="curve" smooth="yes"/>
      <point x="234" y="-10"/>
      <point x="303" y="56"/>
      <point x="303" y="187" type="curve" smooth="yes"/>
      <point x="303" y="740" type="line"/>
      <point x="221" y="740" type="line"/>
      <point x="221" y="185" type="line" smooth="yes"/>
      <point x="221" y="113"/>
      <point x="186" y="66"/>
      <point x="124" y="66" type="curve" smooth="yes"/>
      <point x="84" y="66"/>
      <point x="50" y="78"/>
      <point x="24" y="95" type="curve"/>
      <point x="24" y="15" type="line"/>
      <point x="54" y="-1"/>
      <point x="94" y="-10"/>
    </contour>
  </outline>
</glyph>
<glyph name="Ljecyrillic" format="2">
  <advance height="1000" width="1082"/>
  <unicode hex="0409"/>
  <outline>
    <contour>
      <point x="58" y="-11" type="curve" smooth="yes"/>
      <point x="103" y="-11"/>
      <point x="152" y="6"/>
      <point x="180" y="34" type="curve" smooth="yes"/>
      <point x="240" y="94"/>
      <point x="262" y="172"/>
      <point x="262" y="514" type="curve" smooth="yes"/>
      <point x="262" y="664" type="line"/>
      <point x="551" y="664" type="line"/>
      <point x="551" y="0" type="line"/>
      <point x="768" y="0" type="line" smooth="yes"/>
      <point x="927" y="0"/>
      <point x="1034" y="80"/>
      <point x="1034" y="234" type="curve" smooth="yes"/>
      <point x="1034" y="388"/>
      <point x="928" y="466"/>
      <point x="769" y="466" type="curve" smooth="yes"/>
      <point x="633" y="466" type="line"/>
      <point x="633" y="740" type="line"/>
      <point x="182" y="740" type="line"/>
      <point x="182" y="530" type="line" smooth="yes"/>
      <point x="182" y="204"/>
      <point x="160" y="134"/>
      <point x="120" y="94" type="curve" smooth="yes"/>
      <point x="100" y="74"/>
      <point x="76" y="67"/>
      <point x="46" y="67" type="curve" smooth="yes"/>
      <point x="30" y="67"/>
      <point x="15" y="70"/>
      <point x="5" y="74" type="curve"/>
      <point x="5" y="-4" type="line"/>
      <point x="18" y="-9"/>
      <point x="34" y="-11"/>
    </contour>
    <contour>
      <point x="633" y="76" type="line"/>
      <point x="633" y="390" type="line"/>
      <point x="772" y="390" type="line" smooth="yes"/>
      <point x="889" y="390"/>
      <point x="950" y="326"/>
      <point x="950" y="233" type="curve" smooth="yes"/>
      <point x="950" y="140"/>
      <point x="889" y="76"/>
      <point x="772" y="76" type="curve" smooth="yes"/>
    </contour>
  </outline>
</glyph>
<glyph name="Igravecyrillic" format="2">
  <advance height="1000" width="761"/>
  <unicode hex="040D"/>
  <outline>
    <contour>
      <point x="76" y="0" type="line"/>
      <point x="158" y="0" type="line"/>
      <point x="603" y="613" type="line"/>
      <point x="603" y="0" type="line"/>
      <point x="685" y="0" type="line"/>
      <point x="685" y="740" type="line"/>
      <point x="603" y="740" type="line"/>
      <point x="158" y="127" type="line"/>
      <point x="158" y="740" type="line"/>
      <point x="76" y="740" type="line"/>
    </contour>
    <contour>
      <point x="338" y="787" type="line"/>
      <point x="420" y="787" type="line"/>
      <point x="310" y="939" type="line"/>
      <point x="220" y="939" type="line"/>
    </contour>
  </outline>
</glyph>
<glyph name="Ushortcyrillic" format="2">
  <advance height="1000" width="676"/>
  <unicode hex="040E"/>
  <outline>
    <contour>
      <point x="184" y="-10" type="curve" smooth="yes"/>
      <point x="290" y="-10"/>
      <point x="360" y="28"/>
      <point x="426" y="184" type="curve"/>
      <point x="662" y="740" type="line"/>
      <point x="578" y="740" type="line"/>
      <point x="386" y="279" type="line"/>
      <point x="116" y="740" type="line"/>
      <point x="22" y="740" type="line"/>
      <point x="347" y="196" type="line"/>
      <point x="341" y="182" type="line" smooth="yes"/>
      <point x="303" y="94"/>
      <point x="252" y="66"/>
      <point x="182" y="66" type="curve" smooth="yes"/>
      <point x="148" y="66"/>
      <point x="117" y="75"/>
      <point x="97" y="87" type="curve"/>
      <point x="97" y="7" type="line"/>
      <point x="115" y="-1"/>
      <point x="148" y="-10"/>
    </contour>
    <contour>
      <point x="270" y="942" type="curve"/>
      <point x="194" y="942" type="line"/>
      <point x="194" y="849"/>
      <point x="258" y="787"/>
      <point x="348" y="787" type="curve" smooth="yes"/>
      <point x="438" y="787"/>
      <point x="502" y="849"/>
      <point x="502" y="942" type="curve"/>
      <point x="426" y="942" type="line"/>
      <point x="426" y="885"/>
      <point x="395" y="847"/>
      <point x="348" y="847" type="curve" smooth="yes"/>
      <point x="301" y="847"/>
      <point x="270" y="885"/>
    </contour>
  </outline>
</glyph>
<glyph name="Acyrillic" format="2">
  <advance height="1000" width="705"/>
  <unicode hex="0410"/>
  <outline>
    <contour>
      <point x="595" y="0" type="line"/>
      <point x="685" y="0" type="line"/>
      <point x="395" y="740" type="line"/>
      <point x="310" y="740" type="line"/>
      <point x="20" y="0" type="line"/>
      <point x="105" y="0" type="line"/>
      <point x="350" y="638" type="line"/>
    </contour>
    <contour>
      <point x="157" y="230" type="line"/>
      <point x="547" y="230" type="line"/>
      <point x="547" y="306" type="line"/>
      <point x="157" y="306" type="line"/>
    </contour>
  </outline>
</glyph>
<glyph name="Decyrillic" format="2">
  <advance height="1000" width="826"/>
  <unicode hex="0414"/>
  <outline>
    <contour>
      <point x="682" y="740" type="line"/>
      <point x="192" y="740" type="line"/>
      <point x="192" y="548" type="line" smooth="yes"/>
      <point x="192" y="296"/>
      <point x="159" y="170"/>
      <point x="97" y="76" type="curve"/>
      <point x="14" y="76" type="line"/>
      <point x="14" y="-139" type="line"/>
      <point x="92" y="-139" type="line"/>
      <point x="92" y="0" type="line"/>
      <point x="708" y="0" type="line"/>
      <point x="708" y="-139" type="line"/>
      <point x="788" y="-139" type="line"/>
      <point x="788" y="76" type="line"/>
      <point x="682" y="76" type="line"/>
    </contour>
    <contour>
      <point x="600" y="76" type="line"/>
      <point x="193" y="76" type="line"/>
      <point x="247" y="176"/>
      <point x="272" y="302"/>
      <point x="272" y="532" type="curve" smooth="yes"/>
      <point x="272" y="664" type="line"/>
      <point x="600" y="664" type="line"/>
    </contour>
  </outline>
</glyph>
<glyph name="Iicyrillic" format="2">
  <advance height="1000" width="761"/>
  <unicode hex="0418"/>
  <outline>
    <contour>
      <point x="76" y="0" type="line"/>
      <point x="158" y="0" type="line"/>
      <point x="603" y="613" type="line"/>
      <point x="603" y="0" type="line"/>
      <point x="685" y="0" type="line"/>
      <point x="685" y="740" type="line"/>
      <point x="603" y="740" type="line"/>
      <point x="158" y="127" type="line"/>
      <point x="158" y="740" type="line"/>
      <point x="76" y="740" type="line"/>
    </contour>
  </outline>
</glyph>
<glyph name="Iishortcyrillic" format="2">
  <advance height="1000" width="761"/>
  <unicode hex="0419"/>
  <outline>
    <contour>
      <point x="76" y="0" type="line"/>
      <point x="158" y="0" type="line"/>
      <point x="603" y="613" type="line"/>
      <point x="603" y="0" type="line"/>
      <point x="685" y="0" type="line"/>
      <point x="685" y="740" type="line"/>
      <point x="603" y="740" type="line"/>
      <point x="158" y="127" type="line"/>
      <point x="158" y="740" type="line"/>
      <point x="76" y="740" type="line"/>
    </contour>
    <contour>
      <point x="293" y="942" type="curve"/>
      <point x="217" y="942" type="line"/>
      <point x="217" y="849"/>
      <point x="281" y="787"/>
      <point x="371" y="787" type="curve" smooth="yes"/>
      <point x="461" y="787"/>
      <point x="525" y="849"/>
      <point x="525" y="942" type="curve"/>
      <point x="449" y="942" type="line"/>
      <point x="449" y="885"/>
      <point x="418" y="847"/>
      <point x="371" y="847" type="curve" smooth="yes"/>
      <point x="324" y="847"/>
      <point x="293" y="885"/>
    </contour>
  </outline>
</glyph>
<glyph name="Elcyrillic" format="2">
  <advance height="1000" width="744"/>
  <unicode hex="041B"/>
  <outline>
    <contour>
      <point x="5" y="74" type="curve"/>
      <point x="5" y="-4" type="line"/>
      <point x="17" y="-8"/>
      <point x="36" y="-12"/>
      <point x="58" y="-12" type="curve" smooth="yes"/>
      <point x="104" y="-12"/>
      <point x="148" y="2"/>
      <point x="180" y="34" type="curve" smooth="yes"/>
      <point x="240" y="94"/>
      <point x="262" y="172"/>
      <point x="262" y="514" type="curve" smooth="yes"/>
      <point x="262" y="664" type="line"/>
      <point x="586" y="664" type="line"/>
      <point x="586" y="0" type="line"/>
      <point x="668" y="0" type="line"/>
      <point x="668" y="740" type="line"/>
      <point x="182" y="740" type="line"/>
      <point x="182" y="530" type="line" smooth="yes"/>
      <point x="182" y="204"/>
      <point x="160" y="134"/>
      <point x="120" y="94" type="curve" smooth="yes"/>
      <point x="100" y="74"/>
      <point x="76" y="67"/>
      <point x="46" y="67" type="curve" smooth="yes"/>
      <point x="30" y="67"/>
      <point x="15" y="70"/>
    </contour>
  </outline>
</glyph>
<glyph name="Emcyrillic" format="2">
  <advance height="1000" width="864"/>
  <unicode hex="041C"/>
  <outline>
    <contour>
      <point x="76.0" y="0.0" type="line"/>
      <point x="152.0" y="0.0" type="line"/>
      <point x="152.0" y="655.0" type="line"/>
      <point x="393.0" y="142.0" type="line"/>
      <point x="465.0" y="142.0" type="line"/>
      <point x="706.0" y="655.0" type="line"/>
      <point x="706.0" y="0.0" type="line"/>
      <point x="788.0" y="0.0" type="line"/>
      <point x="788.0" y="740.0" type="line"/>
      <point x="662.0" y="740.0" type="line"/>
      <point x="432.0" y="252.0" type="line"/>
      <point x="202.0" y="740.0" type="line"/>
      <point x="76.0" y="740.0" type="line"/>
    </contour>
  </outline>
</glyph>
<glyph name="Encyrillic" format="2">
  <advance height="1000" width="754"/>
  <unicode hex="041D"/>
  <outline>
    <contour>
      <point x="76.0" y="0.0" type="line"/>
      <point x="158.0" y="0.0" type="line"/>
      <point x="158.0" y="338.0" type="line"/>
      <point x="596.0" y="338.0" type="line"/>
      <point x="596.0" y="0.0" type="line"/>
      <point x="678.0" y="0.0" type="line"/>
      <point x="678.0" y="740.0" type="line"/>
      <point x="596.0" y="740.0" type="line"/>
      <point x="596.0" y="414.0" type="line"/>
      <point x="158.0" y="414.0" type="line"/>
      <point x="158.0" y="740.0" type="line"/>
      <point x="76.0" y="740.0" type="line"/>
    </contour>
  </outline>
</glyph>
<glyph name="Ocyrillic" format="2">
  <advance height="1000" width="858"/>
  <unicode hex="041E"/>
  <outline>
    <contour>
      <point x="429.0" y="-15.0" type="curve" smooth="yes"/>
      <point x="658.0" y="-15.0"/>
      <point x="810.0" y="139.0"/>
      <point x="810.0" y="371.0" type="curve" smooth="yes"/>
      <point x="810.0" y="601.0"/>
      <point x="658.0" y="755.0"/>
      <point x="429.0" y="755.0" type="curve" smooth="yes"/>
      <point x="200.0" y="755.0"/>
      <point x="48.0" y="601.0"/>
      <point x="48.0" y="371.0" type="curve" smooth="yes"/>
      <point x="48.0" y="139.0"/>
      <point x="200.0" y="-15.0"/>
    </contour>
    <contour>
      <point x="429.0" y="60.0" type="curve" smooth="yes"/>
      <point x="251.0" y="60.0"/>
      <point x="132.0" y="185.0"/>
      <point x="132.0" y="371.0" type="curve" smooth="yes"/>
      <point x="132.0" y="556.0"/>
      <point x="251.0" y="680.0"/>
      <point x="429.0" y="680.0" type="curve" smooth="yes"/>
      <point x="607.0" y="680.0"/>
      <point x="726.0" y="556.0"/>
      <point x="726.0" y="371.0" type="curve" smooth="yes"/>
      <point x="726.0" y="185.0"/>
      <point x="607.0" y="60.0"/>
    </contour>
  </outline>
</glyph>
<glyph name="Pecyrillic" format="2">
  <advance height="1000" width="739"/>
  <unicode hex="041F"/>
  <outline>
    <contour>
      <point x="76" y="0" type="line"/>
      <point x="158" y="0" type="line"/>
      <point x="158" y="664" type="line"/>
      <point x="581" y="664" type="line"/>
      <point x="581" y="0" type="line"/>
      <point x="663" y="0" type="line"/>
      <point x="663" y="740" type="line"/>
      <point x="76" y="740" type="line"/>
    </contour>
  </outline>
</glyph>
<glyph name="Ercyrillic" format="2">
  <advance height="1000" width="547"/>
  <unicode hex="0420"/>
  <outline>
    <contour>
      <point x="76.0" y="0.0" type="line"/>
      <point x="158.0" y="0.0" type="line"/>
      <point x="158.0" y="268.0" type="line"/>
      <point x="226.0" y="268.0" type="line" smooth="yes"/>
      <point x="387" y="268"/>
      <point x="495.0" y="348.0"/>
      <point x="495.0" y="504.0" type="curve" smooth="yes"/>
      <point x="495.0" y="660.0"/>
      <point x="387.0" y="740.0"/>
      <point x="225.0" y="740.0" type="curve" smooth="yes"/>
      <point x="76.0" y="740.0" type="line"/>
    </contour>
    <contour>
      <point x="158.0" y="344.0" type="line"/>
      <point x="158.0" y="664.0" type="line"/>
      <point x="229.0" y="664.0" type="line" smooth="yes"/>
      <point x="349" y="664"/>
      <point x="411.0" y="599.0"/>
      <point x="411.0" y="504.0" type="curve" smooth="yes"/>
      <point x="411.0" y="409.0"/>
      <point x="349" y="344"/>
      <point x="230.0" y="344.0" type="curve" smooth="yes"/>
    </contour>
  </outline>
</glyph>
<glyph name="Tsecyrillic" format="2">
  <advance height="1000" width="792"/>
  <unicode hex="0426"/>
  <outline>
    <contour>
      <point x="674" y="0" type="line"/>
      <point x="674" y="-139" type="line"/>
      <point x="754" y="-139" type="line"/>
      <point x="754" y="76" type="line"/>
      <point x="648" y="76" type="line"/>
      <point x="648" y="740" type="line"/>
      <point x="566" y="740" type="line"/>
      <point x="566" y="76" type="line"/>
      <point x="158" y="76" type="line"/>
      <point x="158" y="740" type="line"/>
      <point x="76" y="740" type="line"/>
      <point x="76" y="0" type="line"/>
    </contour>
  </outline>
</glyph>
<glyph name="Shchacyrillic" format="2">
  <advance height="1000" width="1068"/>
  <unicode hex="0429"/>
  <outline>
    <contour>
      <point x="76" y="0" type="line"/>
      <point x="950" y="0" type="line"/>
      <point x="950" y="-139" type="line"/>
      <point x="1030" y="-139" type="line"/>
      <point x="1030" y="76" type="line"/>
      <point x="924" y="76" type="line"/>
      <point x="924" y="740" type="line"/>
      <point x="842" y="740" type="line"/>
      <point x="842" y="76" type="line"/>
      <point x="541" y="76" type="line"/>
      <point x="541" y="740" type="line"/>
      <point x="459" y="740" type="line"/>
      <point x="459" y="76" type="line"/>
      <point x="158" y="76" type="line"/>
      <point x="158" y="740" type="line"/>
      <point x="76" y="740" type="line"/>
    </contour>
  </outline>
</glyph>
<glyph name="Hardsigncyrillic" format="2">
  <advance height="1000" width="784"/>
  <unicode hex="042A"/>
  <outline>
    <contour>
      <point x="240" y="0" type="line"/>
      <point x="470" y="0" type="line" smooth="yes"/>
      <point x="629" y="0"/>
      <point x="736" y="80"/>
      <point x="736" y="234" type="curve" smooth="yes"/>
      <point x="736" y="388"/>
      <point x="630" y="466"/>
      <point x="471" y="466" type="curve" smooth="yes"/>
      <point x="322" y="466" type="line"/>
      <point x="322" y="740" type="line"/>
      <point x="20" y="740" type="line"/>
      <point x="20" y="664" type="line"/>
      <point x="240" y="664" type="line"/>
    </contour>
    <contour>
      <point x="322" y="76" type="line"/>
      <point x="322" y="390" type="line"/>
      <point x="474" y="390" type="line" smooth="yes"/>
      <point x="591" y="390"/>
      <point x="652" y="326"/>
      <point x="652" y="233" type="curve" smooth="yes"/>
      <point x="652" y="140"/>
      <point x="591" y="76"/>
      <point x="474" y="76" type="curve" smooth="yes"/>
    </contour>
  </outline>
</glyph>
<glyph name="Yericyrillic" format="2">
  <advance height="1000" width="832"/>
  <unicode hex="042B"/>
  <outline>
    <contour>
      <point x="674" y="0" type="line"/>
      <point x="756" y="0" type="line"/>
      <point x="756" y="740" type="line"/>
      <point x="674" y="740" type="line"/>
    </contour>
    <contour>
      <point x="76" y="0" type="line"/>
      <point x="300" y="0" type="line" smooth="yes"/>
      <point x="459" y="0"/>
      <point x="566" y="80"/>
      <point x="566" y="234" type="curve" smooth="yes"/>
      <point x="566" y="388"/>
      <point x="460" y="466"/>
      <point x="301" y="466" type="curve" smooth="yes"/>
      <point x="158" y="466" type="line"/>
      <point x="158" y="740" type="line"/>
      <point x="76" y="740" type="line"/>
    </contour>
    <contour>
      <point x="158" y="390" type="line"/>
      <point x="304" y="390" type="line" smooth="yes"/>
      <point x="421" y="390"/>
      <point x="482" y="326"/>
      <point x="482" y="233" type="curve" smooth="yes"/>
      <point x="482" y="140"/>
      <point x="421" y="76"/>
      <point x="304" y="76" type="curve" smooth="yes"/>
      <point x="158" y="76" type="line"/>
    </contour>
  </outline>
</glyph>
<glyph name="Softsigncyrillic" format="2">
  <advance height="1000" width="620"/>
  <unicode hex="042C"/>
  <outline>
    <contour>
      <point x="76" y="0" type="line"/>
      <point x="306" y="0" type="line" smooth="yes"/>
      <point x="465" y="0"/>
      <point x="572" y="80"/>
      <point x="572" y="234" type="curve" smooth="yes"/>
      <point x="572" y="388"/>
      <point x="466" y="466"/>
      <point x="307" y="466" type="curve" smooth="yes"/>
      <point x="158" y="466" type="line"/>
      <point x="158" y="740" type="line"/>
      <point x="76" y="740" type="line"/>
    </contour>
    <contour>
      <point x="158" y="390" type="line"/>
      <point x="310" y="390" type="line" smooth="yes"/>
      <point x="427" y="390"/>
      <point x="488" y="326"/>
      <point x="488" y="233" type="curve" smooth="yes"/>
      <point x="488" y="140"/>
      <point x="427" y="76"/>
      <point x="310" y="76" type="curve" smooth="yes"/>
      <point x="158" y="76" type="line"/>
    </contour>
  </outline>
</glyph>
<glyph name="Ereversedcyrillic" format="2">
  <advance height="1000" width="748"/>
  <unicode hex="042D"/>
  <outline>
    <contour>
      <point x="200" y="338" type="line"/>
      <point x="658" y="338" type="line"/>
      <point x="658" y="414" type="line"/>
      <point x="200" y="414" type="line"/>
    </contour>
    <contour>
      <point x="60" y="136" type="curve"/>
      <point x="60" y="50" type="line"/>
      <point x="132" y="6"/>
      <point x="208" y="-14"/>
      <point x="300" y="-14" type="curve" smooth="yes"/>
      <point x="545" y="-14"/>
      <point x="700" y="136"/>
      <point x="700" y="370" type="curve" smooth="yes"/>
      <point x="700" y="605"/>
      <point x="542" y="754"/>
      <point x="300" y="754" type="curve" smooth="yes"/>
      <point x="214" y="754"/>
      <point x="142" y="737"/>
      <point x="68" y="699" type="curve"/>
      <point x="68" y="613" type="line"/>
      <point x="140" y="659"/>
      <point x="212" y="678"/>
      <point x="300" y="678" type="curve" smooth="yes"/>
      <point x="487" y="678"/>
      <point x="616" y="559"/>
      <point x="616" y="370" type="curve" smooth="yes"/>
      <point x="616" y="183"/>
      <point x="491" y="62"/>
      <point x="300" y="62" type="curve" smooth="yes"/>
      <point x="206" y="62"/>
      <point x="134" y="86"/>
    </contour>
  </outline>
</glyph>
<glyph name="IAcyrillic" format="2">
  <advance height="1000" width="635"/>
  <unicode hex="042F"/>
  <outline>
    <contour>
      <point x="20" y="0" type="line"/>
      <point x="124" y="0" type="line"/>
      <point x="345" y="304" type="line"/>
      <point x="477" y="304" type="line"/>
      <point x="477" y="0" type="line"/>
      <point x="559" y="0" type="line"/>
      <point x="559" y="740" type="line"/>
      <point x="314" y="740" type="line" smooth="yes"/>
      <point x="162" y="740"/>
      <point x="67" y="661"/>
      <point x="67" y="521" type="curve" smooth="yes"/>
      <point x="67" y="407"/>
      <point x="137" y="329"/>
      <point x="254" y="311" type="curve"/>
    </contour>
    <contour>
      <point x="477" y="378" type="line"/>
      <point x="312" y="378" type="line" smooth="yes"/>
      <point x="206" y="378"/>
      <point x="151" y="437"/>
      <point x="151" y="521" type="curve" smooth="yes"/>
      <point x="151" y="605"/>
      <point x="206" y="664"/>
      <point x="312" y="664" type="curve" smooth="yes"/>
      <point x="477" y="664" type="line"/>
    </contour>
  </outline>
</glyph>
<glyph name="becyrillic" format="2">
  <advance height="1000" width="598"/>
  <unicode hex="0431"/>
  <outline>
    <contour>
      <point x="515" y="674" type="line"/>
      <point x="515" y="755" type="line"/>
      <point x="385" y="733" type="line" smooth="yes"/>
      <point x="257" y="711"/>
      <point x="199" y="684"/>
      <point x="145" y="630" type="curve" smooth="yes"/>
      <point x="79" y="564"/>
      <point x="46" y="460"/>
      <point x="46" y="288" type="curve" smooth="yes"/>
      <point x="46" y="94"/>
      <point x="149" y="-12"/>
      <point x="299" y="-12" type="curve" smooth="yes"/>
      <point x="451" y="-12"/>
      <point x="554" y="95"/>
      <point x="554" y="254" type="curve" smooth="yes"/>
      <point x="554" y="413"/>
      <point x="462" y="512"/>
      <point x="324" y="512" type="curve" smooth="yes"/>
      <point x="230" y="512"/>
      <point x="165" y="472"/>
      <point x="125" y="403" type="curve"/>
      <point x="137" y="483"/>
      <point x="161" y="538"/>
      <point x="199" y="576" type="curve" smooth="yes"/>
      <point x="237" y="614"/>
      <point x="281" y="634"/>
      <point x="391" y="653" type="curve"/>
    </contour>
    <contour>
      <point x="306" y="436" type="curve" smooth="yes"/>
      <point x="412" y="436"/>
      <point x="472" y="364"/>
      <point x="472" y="249" type="curve" smooth="yes"/>
      <point x="472" y="136"/>
      <point x="403" y="64"/>
      <point x="299" y="64" type="curve" smooth="yes"/>
      <point x="199" y="64"/>
      <point x="128" y="136"/>
      <point x="128" y="256" type="curve" smooth="yes"/>
      <point x="128" y="362"/>
      <point x="198" y="436"/>
    </contour>
  </outline>
</glyph>
<glyph name="gecyrillic" format="2">
  <advance height="1000" width="414"/>
  <unicode hex="0433"/>
  <outline>
    <contour>
      <point x="64" y="0" type="line"/>
      <point x="144" y="0" type="line"/>
      <point x="144" y="455" type="line"/>
      <point x="394" y="455" type="line"/>
      <point x="394" y="529" type="line"/>
      <point x="64" y="529" type="line"/>
    </contour>
  </outline>
</glyph>
<glyph name="decyrillic" format="2">
  <advance height="1000" width="646"/>
  <unicode hex="0434"/>
  <outline>
    <contour>
      <point x="88" y="-124" type="line"/>
      <point x="88" y="0" type="line"/>
      <point x="540" y="0" type="line"/>
      <point x="540" y="-124" type="line"/>
      <point x="618" y="-124" type="line"/>
      <point x="618" y="74" type="line"/>
      <point x="528" y="74" type="line"/>
      <point x="528" y="529" type="line"/>
      <point x="145" y="529" type="line"/>
      <point x="145" y="408" type="line" smooth="yes"/>
      <point x="145" y="232"/>
      <point x="120" y="142"/>
      <point x="78" y="74" type="curve"/>
      <point x="10" y="74" type="line"/>
      <point x="10" y="-124" type="line"/>
    </contour>
    <contour>
      <point x="448" y="457" type="line"/>
      <point x="448" y="74" type="line"/>
      <point x="164" y="74" type="line"/>
      <point x="200" y="138"/>
      <point x="221" y="237"/>
      <point x="221" y="387" type="curve" smooth="yes"/>
      <point x="221" y="457" type="line"/>
    </contour>
  </outline>
</glyph>
<glyph name="zhecyrillic" format="2">
  <advance height="1000" width="761"/>
  <unicode hex="0436"/>
  <outline>
    <contour>
      <point x="14" y="0" type="line"/>
      <point x="116" y="0" type="line"/>
      <point x="289" y="238" type="line"/>
      <point x="341" y="238" type="line"/>
      <point x="341" y="0" type="line"/>
      <point x="420" y="0" type="line"/>
      <point x="420" y="238" type="line"/>
      <point x="472" y="238" type="line"/>
      <point x="644" y="0" type="line"/>
      <point x="747" y="0" type="line"/>
      <point x="539" y="278" type="line"/>
      <point x="733" y="529" type="line"/>
      <point x="638" y="529" type="line"/>
      <point x="472" y="308" type="line"/>
      <point x="420" y="308" type="line"/>
      <point x="420" y="529" type="line"/>
      <point x="341" y="529" type="line"/>
      <point x="341" y="308" type="line"/>
      <point x="289" y="308" type="line"/>
      <point x="124" y="529" type="line"/>
      <point x="28" y="529" type="line"/>
      <point x="222" y="277" type="line"/>
    </contour>
  </outline>
</glyph>
<glyph name="iishortcyrillic" format="2">
  <advance height="1000" width="571"/>
  <unicode hex="0439"/>
  <outline>
    <contour>
      <point x="64" y="0" type="line"/>
      <point x="144" y="0" type="line"/>
      <point x="430" y="410" type="line"/>
      <point x="430" y="0" type="line"/>
      <point x="507" y="0" type="line"/>
      <point x="507" y="529" type="line"/>
      <point x="427" y="529" type="line"/>
      <point x="141" y="119" type="line"/>
      <point x="141" y="529" type="line"/>
      <point x="64" y="529" type="line"/>
    </contour>
    <contour>
      <point x="206" y="748" type="curve"/>
      <point x="130" y="748" type="line"/>
      <point x="130" y="655"/>
      <point x="194" y="593"/>
      <point x="284" y="593" type="curve" smooth="yes"/>
      <point x="374" y="593"/>
      <point x="438" y="655"/>
      <point x="438" y="748" type="curve"/>
      <point x="362" y="748" type="line"/>
      <point x="362" y="691"/>
      <point x="331" y="653"/>
      <point x="284" y="653" type="curve" smooth="yes"/>
      <point x="237" y="653"/>
      <point x="206" y="691"/>
    </contour>
  </outline>
</glyph>
<glyph name="kacyrillic" format="2">
  <advance height="1000" width="509"/>
  <unicode hex="043A"/>
  <outline>
    <contour>
      <point x="265" y="278" type="line"/>
      <point x="481" y="529" type="line"/>
      <point x="384" y="529" type="line"/>
      <point x="197" y="309" type="line"/>
      <point x="144" y="309" type="line"/>
      <point x="144" y="529" type="line"/>
      <point x="64" y="529" type="line"/>
      <point x="64" y="0" type="line"/>
      <point x="144" y="0" type="line"/>
      <point x="144" y="237" type="line"/>
      <point x="197" y="237" type="line"/>
      <point x="390" y="0" type="line"/>
      <point x="495" y="0" type="line"/>
    </contour>
  </outline>
</glyph>
<glyph name="elcyrillic" format="2">
  <advance height="1000" width="573"/>
  <unicode hex="043B"/>
  <outline>
    <contour>
      <point x="10" y="69" type="curve"/>
      <point x="10" y="-7" type="line"/>
      <point x="18" y="-9"/>
      <point x="33" y="-12"/>
      <point x="53" y="-12" type="curve" smooth="yes"/>
      <point x="89" y="-12"/>
      <point x="121" y="-1"/>
      <point x="147" y="25" type="curve" smooth="yes"/>
      <point x="187" y="65"/>
      <point x="208" y="131"/>
      <point x="208" y="371" type="curve" smooth="yes"/>
      <point x="208" y="455" type="line"/>
      <point x="429" y="455" type="line"/>
      <point x="429" y="0" type="line"/>
      <point x="509" y="0" type="line"/>
      <point x="509" y="529" type="line"/>
      <point x="130" y="529" type="line"/>
      <point x="130" y="392" type="line" smooth="yes"/>
      <point x="130" y="164"/>
      <point x="116" y="112"/>
      <point x="88" y="84" type="curve" smooth="yes"/>
      <point x="74" y="70"/>
      <point x="61" y="65"/>
      <point x="39" y="65" type="curve" smooth="yes"/>
      <point x="27" y="65"/>
      <point x="19" y="66"/>
    </contour>
  </outline>
</glyph>
<glyph name="emcyrillic" format="2">
  <advance height="1000" width="718"/>
  <unicode hex="043C"/>
  <outline>
    <contour>
      <point x="64" y="0" type="line"/>
      <point x="138" y="0" type="line"/>
      <point x="138" y="452" type="line"/>
      <point x="321" y="80" type="line"/>
      <point x="391" y="80" type="line"/>
      <point x="574" y="452" type="line"/>
      <point x="574" y="0" type="line"/>
      <point x="654" y="0" type="line"/>
      <point x="654" y="529" type="line"/>
      <point x="535" y="529" type="line"/>
      <point x="359" y="171" type="line"/>
      <point x="183" y="529" type="line"/>
      <point x="64" y="529" type="line"/>
    </contour>
  </outline>
</glyph>
<glyph name="escyrillic" format="2">
  <advance height="1000" width="515"/>
  <unicode hex="0441"/>
  <outline>
    <contour>
      <point x="311.0" y="-10.0" type="curve" smooth="yes"/>
      <point x="368.0" y="-10.0"/>
      <point x="423.0" y="6.0"/>
      <point x="470.0" y="36.0" type="curve"/>
      <point x="470.0" y="123.0" type="line"/>
      <point x="426.0" y="87.0"/>
      <point x="373.0" y="66.0"/>
      <point x="315.0" y="66.0" type="curve" smooth="yes"/>
      <point x="201.0" y="66.0"/>
      <point x="126.0" y="142.0"/>
      <point x="126.0" y="264.0" type="curve" smooth="yes"/>
      <point x="126.0" y="391.0"/>
      <point x="197.0" y="463.0"/>
      <point x="311.0" y="463.0" type="curve" smooth="yes"/>
      <point x="369.0" y="463.0"/>
      <point x="419.0" y="447.0"/>
      <point x="471.0" y="412.0" type="curve"/>
      <point x="471.0" y="498.0" type="line"/>
      <point x="419.0" y="525.0"/>
      <point x="364.0" y="539.0"/>
      <point x="308.0" y="539.0" type="curve" smooth="yes"/>
      <point x="146.0" y="539.0"/>
      <point x="44.0" y="435.0"/>
      <point x="44.0" y="263.0" type="curve" smooth="yes"/>
      <point x="44.0" y="97.0"/>
      <point x="149.0" y="-10.0"/>
    </contour>
  </outline>
</glyph>
<glyph name="ucyrillic" format="2">
  <advance height="1000" width="518"/>
  <unicode hex="0443"/>
  <outline>
    <contour>
      <point x="8.0" y="-189.0" type="line" smooth="yes"/>
      <point x="152.0" y="-189.0"/>
      <point x="236" y="-140"/>
      <point x="310.0" y="42.0" type="curve" smooth="yes"/>
      <point x="507.0" y="529.0" type="line"/>
      <point x="425.0" y="529.0" type="line"/>
      <point x="262.0" y="119.0" type="line"/>
      <point x="99.0" y="529.0" type="line"/>
      <point x="12.0" y="529.0" type="line"/>
      <point x="212.0" y="35.0" type="line"/>
      <point x="217.0" y="27.0" type="line"/>
      <point x="162.0" y="-89.0"/>
      <point x="105.0" y="-114.0"/>
      <point x="8.0" y="-114.0" type="curve" smooth="yes"/>
      <point x="0.0" y="-114.0" type="line"/>
      <point x="0.0" y="-189.0" type="line"/>
    </contour>
  </outline>
</glyph>
<glyph name="yericyrillic" format="2">
  <advance height="1000" width="709"/>
  <unicode hex="044B"/>
  <outline>
    <contour>
      <point x="564" y="0" type="line"/>
      <point x="645" y="0" type="line"/>
      <point x="645" y="529" type="line"/>
      <point x="564" y="529" type="line"/>
    </contour>
    <contour>
      <point x="64" y="0" type="line"/>
      <point x="267" y="0" type="line" smooth="yes"/>
      <point x="393" y="0"/>
      <point x="470" y="69"/>
      <point x="470" y="176" type="curve" smooth="yes"/>
      <point x="470" y="281"/>
      <point x="395" y="348"/>
      <point x="270" y="348" type="curve" smooth="yes"/>
      <point x="144" y="348" type="line"/>
      <point x="144" y="529" type="line"/>
      <point x="64" y="529" type="line"/>
    </contour>
    <contour>
      <point x="144" y="276" type="line"/>
      <point x="272" y="276" type="line" smooth="yes"/>
      <point x="344" y="276"/>
      <point x="388" y="235"/>
      <point x="388" y="174" type="curve" smooth="yes"/>
      <point x="388" y="113"/>
      <point x="344" y="72"/>
      <point x="272" y="72" type="curve" smooth="yes"/>
      <point x="144" y="72" type="line"/>
    </contour>
  </outline>
</glyph>
<glyph name="softsigncyrillic" format="2">
  <advance height="1000" width="506"/>
  <unicode hex="044C"/>
  <outline>
    <contour>
      <point x="64" y="0" type="line"/>
      <point x="273" y="0" type="line" smooth="yes"/>
      <point x="399" y="0"/>
      <point x="476" y="69"/>
      <point x="476" y="176" type="curve" smooth="yes"/>
      <point x="476" y="281"/>
      <point x="401" y="348"/>
      <point x="276" y="348" type="curve" smooth="yes"/>
      <point x="144" y="348" type="line"/>
      <point x="144" y="529" type="line"/>
      <point x="64" y="529" type="line"/>
    </contour>
    <contour>
      <point x="144" y="276" type="line"/>
      <point x="278" y="276" type="line" smooth="yes"/>
      <point x="350" y="276"/>
      <point x="394" y="235"/>
      <point x="394" y="174" type="curve" smooth="yes"/>
      <point x="394" y="113"/>
      <point x="350" y="72"/>
      <point x="278" y="72" type="curve" smooth="yes"/>
      <point x="144" y="72" type="line"/>
    </contour>
  </outline>
</glyph>
<glyph name="ereversedcyrillic" format="2">
  <advance height="1000" width="527"/>
  <unicode hex="044D"/>
  <outline>
    <contour>
      <point x="45" y="123" type="curve"/>
      <point x="45" y="36" type="line"/>
      <point x="93" y="6"/>
      <point x="150" y="-10"/>
      <point x="208" y="-10" type="curve" smooth="yes"/>
      <point x="379" y="-10"/>
      <point x="483" y="101"/>
      <point x="483" y="265" type="curve" smooth="yes"/>
      <point x="483" y="431"/>
      <point x="380" y="539"/>
      <point x="212" y="539" type="curve" smooth="yes"/>
      <point x="154" y="539"/>
      <point x="96" y="524"/>
      <point x="44" y="498" type="curve"/>
      <point x="44" y="412" type="line"/>
      <point x="98" y="446"/>
      <point x="150" y="463"/>
      <point x="210" y="463" type="curve" smooth="yes"/>
      <point x="326" y="463"/>
      <point x="401" y="387"/>
      <point x="401" y="265" type="curve" smooth="yes"/>
      <point x="401" y="142"/>
      <point x="327" y="66"/>
      <point x="205" y="66" type="curve" smooth="yes"/>
      <point x="145" y="66"/>
      <point x="91" y="87"/>
    </contour>
    <contour>
      <point x="136" y="233" type="line"/>
      <point x="452" y="233" type="line"/>
      <point x="452" y="305" type="line"/>
      <point x="136" y="305" type="line"/>
    </contour>
  </outline>
</glyph>
<glyph name="iucyrillic" format="2">
  <advance height="1000" width="796"/>
  <unicode hex="044E"/>
  <outline>
    <contour>
      <point x="64" y="0" type="line"/>
      <point x="144" y="0" type="line"/>
      <point x="144" y="233" type="line"/>
      <point x="268" y="233" type="line"/>
      <point x="268" y="305" type="line"/>
      <point x="144" y="305" type="line"/>
      <point x="144" y="529" type="line"/>
      <point x="64" y="529" type="line"/>
    </contour>
    <contour>
      <point x="238" y="265" type="curve" smooth="yes"/>
      <point x="238" y="97"/>
      <point x="342" y="-12"/>
      <point x="495" y="-12" type="curve" smooth="yes"/>
      <point x="648" y="-12"/>
      <point x="752" y="97"/>
      <point x="752" y="265" type="curve" smooth="yes"/>
      <point x="752" y="433"/>
      <point x="648" y="541"/>
      <point x="495" y="541" type="curve" smooth="yes"/>
      <point x="342" y="541"/>
      <point x="238" y="434"/>
    </contour>
    <contour>
      <point x="320" y="265" type="curve" smooth="yes"/>
      <point x="320" y="390"/>
      <point x="391" y="466"/>
      <point x="495" y="466" type="curve" smooth="yes"/>
      <point x="600" y="466"/>
      <point x="670" y="390"/>
      <point x="670" y="265" type="curve" smooth="yes"/>
      <point x="670" y="139"/>
      <point x="600" y="63"/>
      <point x="495" y="63" type="curve" smooth="yes"/>
      <point x="391" y="63"/>
      <point x="320" y="139"/>
    </contour>
  </outline>
</glyph>
<glyph name="iacyrillic" format="2">
  <advance height="1000" width="527"/>
  <unicode hex="044F"/>
  <outline>
    <contour>
      <point x="11" y="0" type="line"/>
      <point x="113" y="0" type="line"/>
      <point x="270" y="201" type="line"/>
      <point x="383" y="201" type="line"/>
      <point x="383" y="0" type="line"/>
      <point x="463" y="0" type="line"/>
      <point x="463" y="529" type="line"/>
      <point x="239" y="529" type="line" smooth="yes"/>
      <point x="123" y="529"/>
      <point x="49" y="464"/>
      <point x="49" y="363" type="curve" smooth="yes"/>
      <point x="49" y="281"/>
      <point x="106" y="226"/>
      <point x="182" y="210" type="curve"/>
    </contour>
    <contour>
      <point x="383" y="457" type="line"/>
      <point x="383" y="271" type="line"/>
      <point x="237" y="271" type="line" smooth="yes"/>
      <point x="171" y="271"/>
      <point x="131" y="308"/>
      <point x="131" y="364" type="curve" smooth="yes"/>
      <point x="131" y="420"/>
      <point x="171" y="457"/>
      <point x="237" y="457" type="curve" smooth="yes"/>
    </contour>
  </outline>
</glyph>
<glyph name="ecyrillic" format="2">
  <advance height="1000" width="527"/>
  <unicode hex="0454"/>
  <outline>
    <contour>
      <point x="483" y="412" type="curve"/>
      <point x="483" y="498" type="line"/>
      <point x="430" y="525"/>
      <point x="373" y="539"/>
      <point x="315" y="539" type="curve" smooth="yes"/>
      <point x="149" y="539"/>
      <point x="44" y="435"/>
      <point x="44" y="263" type="curve" smooth="yes"/>
      <point x="44" y="97"/>
      <point x="152" y="-10"/>
      <point x="319" y="-10" type="curve" smooth="yes"/>
      <point x="377" y="-10"/>
      <point x="434" y="6"/>
      <point x="482" y="36" type="curve"/>
      <point x="482" y="123" type="line"/>
      <point x="437" y="87"/>
      <point x="382" y="66"/>
      <point x="322" y="66" type="curve" smooth="yes"/>
      <point x="203" y="66"/>
      <point x="126" y="142"/>
      <point x="126" y="264" type="curve" smooth="yes"/>
      <point x="126" y="391"/>
      <point x="199" y="463"/>
      <point x="318" y="463" type="curve" smooth="yes"/>
      <point x="378" y="463"/>
      <point x="429" y="447"/>
    </contour>
    <contour>
      <point x="391" y="305" type="line"/>
      <point x="75" y="305" type="line"/>
      <point x="75" y="233" type="line"/>
      <point x="391" y="233" type="line"/>
    </contour>
  </outline>
</glyph>
<glyph name="yicyrillic" format="2">
  <advance height="1000" width="209"/>
  <unicode hex="0457"/>
  <outline>
    <contour>
      <point x="64" y="0" type="line"/>
      <point x="145" y="0" type="line"/>
      <point x="145" y="529" type="line"/>
      <point x="64" y="529" type="line"/>
    </contour>
    <contour>
      <point x="-17" y="596" type="line"/>
      <point x="65" y="596" type="line"/>
      <point x="65" y="678" type="line"/>
      <point x="-17" y="678" type="line"/>
    </contour>
    <contour>
      <point x="151" y="596" type="line"/>
      <point x="233" y="596" type="line"/>
      <point x="233" y="678" type="line"/>
      <point x="151" y="678" type="line"/>
    </contour>
  </outline>
</glyph>
<glyph name="jecyrillic" format="2">
  <advance height="1000" width="209"/>
  <unicode hex="0458"/>
  <outline>
    <contour>
      <point x="65.0" y="658.0" type="line"/>
      <point x="145.0" y="658.0" type="line"/>
      <point x="145.0" y="740.0" type="line"/>
      <point x="65.0" y="740.0" type="line"/>
    </contour>
    <contour>
      <point x="-50.0" y="-189.0" type="line"/>
      <point x="67.0" y="-189.0"/>
      <point x="145.0" y="-105.0"/>
      <point x="145.0" y="12.0" type="curve" smooth="yes"/>
      <point x="145.0" y="529.0" type="line"/>
      <point x="65.0" y="529.0" type="line"/>
      <point x="65.0" y="12.0" type="line" smooth="yes"/>
      <point x="65.0" y="-65.0"/>
      <point x="18.0" y="-113.0"/>
      <point x="-50.0" y="-113.0" type="curve" smooth="yes"/>
      <point x="-60.0" y="-113.0" type="line"/>
      <point x="-60.0" y="-189.0" type="line"/>
    </contour>
  </outline>
</glyph>
<glyph name="tshecyrillic" format="2">
  <advance width="546"/>
  <unicode hex="045B"/>
  <outline>
    <contour>
      <point x="13" y="588" type="line"/>
      <point x="232" y="588" type="line"/>
      <point x="232" y="660" type="line"/>
      <point x="13" y="660" type="line"/>
    </contour>
    <contour>
      <point x="147" y="0" type="line"/>
      <point x="147" y="382" type="line"/>
      <point x="177" y="430"/>
      <point x="229" y="463"/>
      <point x="285" y="463" type="curve" smooth="yes"/>
      <point x="360" y="463"/>
      <point x="406" y="421"/>
      <point x="406" y="334" type="curve" smooth="yes"/>
      <point x="406" y="0" type="line"/>
      <point x="486" y="0" type="line"/>
      <point x="486" y="351" type="line" smooth="yes"/>
      <point x="486" y="465"/>
      <point x="423" y="539"/>
      <point x="307" y="539" type="curve" smooth="yes"/>
      <point x="244" y="539"/>
      <point x="184" y="510"/>
      <point x="147" y="459" type="curve"/>
      <point x="147" y="740" type="line"/>
      <point x="67" y="740" type="line"/>
      <point x="67" y="0" type="line"/>
    </contour>
  </outline>
</glyph>
<glyph name="kjecyrillic" format="2">
  <advance height="1000" width="509"/>
  <unicode hex="045C"/>
  <outline>
    <contour>
      <point x="265" y="278" type="line"/>
      <point x="481" y="529" type="line"/>
      <point x="384" y="529" type="line"/>
      <point x="197" y="309" type="line"/>
      <point x="144" y="309" type="line"/>
      <point x="144" y="529" type="line"/>
      <point x="64" y="529" type="line"/>
      <point x="64" y="0" type="line"/>
      <point x="144" y="0" type="line"/>
      <point x="144" y="237" type="line"/>
      <point x="197" y="237" type="line"/>
      <point x="390" y="0" type="line"/>
      <point x="495" y="0" type="line"/>
    </contour>
    <contour>
      <point x="287" y="596" type="line"/>
      <point x="405" y="748" type="line"/>
      <point x="315" y="748" type="line"/>
      <point x="205" y="596" type="line"/>
    </contour>
  </outline>
</glyph>
<glyph name="kadescendercyrillic" format="2">
  <advance height="1000" width="528"/>
  <unicode hex="049B"/>
  <outline>
    <contour>
      <point x="265" y="278" type="line"/>
      <point x="471" y="529" type="line"/>
      <point x="374" y="529" type="line"/>
      <point x="197" y="309" type="line"/>
      <point x="144" y="309" type="line"/>
      <point x="144" y="529" type="line"/>
      <point x="64" y="529" type="line"/>
      <point x="64" y="0" type="line"/>
      <point x="144" y="0" type="line"/>
      <point x="144" y="237" type="line"/>
      <point x="197" y="237" type="line"/>
      <point x="380" y="0" type="line"/>
      <point x="485" y="0" type="line"/>
    </contour>
    <contour>
      <point x="400" y="74" type="line"/>
      <point x="400" y="0" type="line"/>
      <point x="444" y="0" type="line"/>
      <point x="444" y="-124" type="line"/>
      <point x="522" y="-124" type="line"/>
      <point x="522" y="74" type="line"/>
    </contour>
  </outline>
</glyph>
<glyph name="Ustraightstrokecyrillic" format="2">
  <advance height="1000" width="645"/>
  <unicode hex="04B0"/>
  <outline>
    <contour>
      <point x="282" y="0" type="line"/>
      <point x="364" y="0" type="line"/>
      <point x="364" y="322" type="line"/>
      <point x="633" y="740" type="line"/>
      <point x="542" y="740" type="line"/>
      <point x="325" y="396" type="line"/>
      <point x="108" y="740" type="line"/>
      <point x="12" y="740" type="line"/>
      <point x="282" y="321" type="line"/>
    </contour>
    <contour>
      <point x="108" y="183" type="line"/>
      <point x="538" y="183" type="line"/>
      <point x="538" y="259" type="line"/>
      <point x="108" y="259" type="line"/>
    </contour>
  </outline>
</glyph>
<glyph name="ustraightstrokecyrillic" format="2">
  <advance height="1000" width="532"/>
  <unicode hex="04B1"/>
  <outline>
    <contour>
      <point x="226" y="-197" type="line"/>
      <point x="306" y="-197" type="line"/>
      <point x="306" y="0" type="line"/>
      <point x="512" y="529" type="line"/>
      <point x="429" y="529" type="line"/>
      <point x="268" y="103" type="line"/>
      <point x="107" y="529" type="line"/>
      <point x="20" y="529" type="line"/>
      <point x="226" y="0" type="line"/>
    </contour>
    <contour>
      <point x="451" y="-72" type="line"/>
      <point x="451" y="0" type="line"/>
      <point x="83" y="0" type="line"/>
      <point x="83" y="-72" type="line"/>
    </contour>
  </outline>
</glyph>
<glyph name="hadescendercyrillic" format="2">
  <advance height="1000" width="535"/>
  <unicode hex="04B3"/>
  <outline>
    <contour>
      <point x="15" y="0" type="line"/>
      <point x="108" y="0" type="line"/>
      <point x="248" y="210" type="line"/>
      <point x="388" y="0" type="line"/>
      <point x="484" y="0" type="line"/>
      <point x="296" y="275" type="line"/>
      <point x="469" y="529" type="line"/>
      <point x="378" y="529" type="line"/>
      <point x="252" y="337" type="line"/>
      <point x="126" y="529" type="line"/>
      <point x="31" y="529" type="line"/>
      <point x="203" y="270" type="line"/>
    </contour>
    <contour>
      <point x="407" y="74" type="line"/>
      <point x="407" y="0" type="line"/>
      <point x="451" y="0" type="line"/>
      <point x="451" y="-124" type="line"/>
      <point x="529" y="-124" type="line"/>
      <point x="529" y="74" type="line"/>
    </contour>
  </outline>
</glyph>
<glyph name="chedescendercyrillic" format="2">
  <advance height="1000" width="581"/>
  <unicode hex="04B7"/>
  <outline>
    <contour>
      <point x="463" y="74" type="line"/>
      <point x="463" y="529" type="line"/>
      <point x="383" y="529" type="line"/>
      <point x="383" y="282" type="line"/>
      <point x="357" y="256"/>
      <point x="309" y="236"/>
      <point x="247" y="236" type="curve" smooth="yes"/>
      <point x="159" y="236"/>
      <point x="126" y="267"/>
      <point x="126" y="345" type="curve" smooth="yes"/>
      <point x="126" y="529" type="line"/>
      <point x="46" y="529" type="line"/>
      <point x="46" y="330" type="line" smooth="yes"/>
      <point x="46" y="210"/>
      <point x="103" y="163"/>
      <point x="225" y="163" type="curve" smooth="yes"/>
      <point x="295" y="163"/>
      <point x="351" y="184"/>
      <point x="383" y="212" type="curve"/>
      <point x="383" y="0" type="line"/>
      <point x="475" y="0" type="line"/>
      <point x="475" y="-124" type="line"/>
      <point x="553" y="-124" type="line"/>
      <point x="553" y="74" type="line"/>
    </contour>
  </outline>
</glyph>
<glyph name="emdash" format="2">
  <advance height="1000" width="1000"/>
  <unicode hex="2014"/>
  <outline>
    <contour>
      <point x="48" y="250" type="line"/>
      <point x="952" y="250" type="line"/>
      <point x="952" y="322" type="line"/>
      <point x="48" y="322" type="line"/>
    </contour>
  </outline>
</glyph>
<glyph name="quoteleft" format="2">
  <advance height="1000" width="198"/>
  <unicode hex="2018"/>
  <outline>
    <contour>
      <point x="60" y="496" type="line"/>
      <point x="138" y="496" type="line"/>
      <point x="138" y="579" type="line" smooth="yes"/>
      <point x="138" y="650"/>
      <point x="151" y="696"/>
      <point x="182" y="746" type="curve"/>
      <point x="122" y="765" type="line"/>
      <point x="85" y="725"/>
      <point x="60" y="667"/>
      <point x="60" y="577" type="curve" smooth="yes"/>
    </contour>
  </outline>
</glyph>
<glyph name="quoteright" format="2">
  <advance height="1000" width="198"/>
  <unicode hex="2019"/>
  <outline>
    <contour>
      <point x="74" y="481" type="line"/>
      <point x="111" y="522"/>
      <point x="138" y="580"/>
      <point x="138" y="669" type="curve" smooth="yes"/>
      <point x="138" y="750" type="line"/>
      <point x="60" y="750" type="line"/>
      <point x="60" y="667" type="line" smooth="yes"/>
      <point x="60" y="597"/>
      <point x="47" y="551"/>
      <point x="16" y="501" type="curve"/>
    </contour>
  </outline>
</glyph>
<glyph name="quotesinglbase" format="2">
  <advance height="1000" width="198"/>
  <unicode hex="201A"/>
  <outline>
    <contour>
      <point x="74" y="-142" type="line"/>
      <point x="111" y="-101"/>
      <point x="138" y="-44"/>
      <point x="138" y="47" type="curve" smooth="yes"/>
      <point x="138" y="127" type="line"/>
      <point x="60" y="127" type="line"/>
      <point x="60" y="44" type="line" smooth="yes"/>
      <point x="60" y="-26"/>
      <point x="47" y="-72"/>
      <point x="16" y="-122" type="curve"/>
    </contour>
  </outline>
</glyph>
<glyph name="quotedblright" format="2">
  <advance height="1000" width="348"/>
  <unicode hex="201D"/>
  <outline>
    <contour>
      <point x="71" y="469" type="line"/>
      <point x="108" y="510"/>
      <point x="138" y="579"/>
      <point x="138" y="668" type="curve" smooth="yes"/>
      <point x="138" y="740" type="line"/>
      <point x="60" y="740" type="line"/>
      <point x="60" y="668" type="line" smooth="yes"/>
      <point x="60" y="598"/>
      <point x="47" y="550"/>
      <point x="16" y="500" type="curve"/>
    </contour>
    <contour>
      <point x="221" y="469" type="line"/>
      <point x="258" y="510"/>
      <point x="288" y="579"/>
      <point x="288" y="668" type="curve" smooth="yes"/>
      <point x="288" y="740" type="line"/>
      <point x="210" y="740" type="line"/>
      <point x="210" y="668" type="line" smooth="yes"/>
      <point x="210" y="598"/>
      <point x="197" y="550"/>
      <point x="166" y="500" type="curve"/>
    </contour>
  </outline>
</glyph>
<glyph name="uni2461" format="2">
  <advance height="1000" width="1000"/>
  <unicode hex="2461"/>
  <outline>
    <contour>
      <point x="345.5625" y="125.0625" type="line"/>
      <point x="661.8125" y="125.0625" type="line"/>
      <point x="662" y="193" type="line"/>
      <point x="438" y="193" type="line"/>
      <point x="615.3946188340807" y="329.0"/>
      <point x="659.0" y="389.0"/>
      <point x="659" y="466" type="curve" smooth="yes"/>
      <point x="659.0" y="554.0"/>
      <point x="593.65625" y="607.0"/>
      <point x="495.5625" y="607.0" type="curve" smooth="yes"/>
      <point x="443.625" y="607.0"/>
      <point x="393.71875" y="594.21875"/>
      <point x="349.4375" y="572.90625" type="curve"/>
      <point x="349" y="499" type="line"/>
      <point x="391.8346456692913" y="526.0"/>
      <point x="441.0944881889764" y="539.0"/>
      <point x="485" y="539" type="curve" smooth="yes"/>
      <point x="540.6261682242991" y="539.0"/>
      <point x="581.0" y="511.0"/>
      <point x="581" y="456" type="curve" smooth="yes"/>
      <point x="581.0" y="399.0"/>
      <point x="536.7199016188471" y="346.2044049815498"/>
      <point x="345.5625" y="197.9375" type="curve"/>
    </contour>
    <contour>
      <point x="980" y="350" type="curve" smooth="yes"/>
      <point x="980" y="638"/>
      <point x="759" y="830"/>
      <point x="500" y="830" type="curve" smooth="yes"/>
      <point x="241" y="830"/>
      <point x="20" y="638"/>
      <point x="20" y="350" type="curve" smooth="yes"/>
      <point x="20" y="62"/>
      <point x="241" y="-130"/>
      <point x="500" y="-130" type="curve" smooth="yes"/>
      <point x="759" y="-130"/>
      <point x="980" y="62"/>
    </contour>
    <contour>
      <point x="916" y="350" type="curve" smooth="yes"/>
      <point x="916" y="125"/>
      <point x="750" y="-66"/>
      <point x="500" y="-66" type="curve" smooth="yes"/>
      <point x="250" y="-66"/>
      <point x="84" y="125"/>
      <point x="84" y="350" type="curve" smooth="yes"/>
      <point x="84" y="575"/>
      <point x="250" y="766"/>
      <point x="500" y="766" type="curve" smooth="yes"/>
      <point x="750" y="766"/>
      <point x="916" y="575"/>
    </contour>
  </outline>
</glyph>
<glyph name="uni2465" format="2">
  <advance height="1000" width="1000"/>
  <unicode hex="2465"/>
  <outline>
    <contour>
      <point x="492" y="113" type="curve" smooth="yes"/>
      <point x="596" y="113"/>
      <point x="666" y="183"/>
      <point x="666" y="281" type="curve" smooth="yes"/>
      <point x="666" y="374"/>
      <point x="601" y="437"/>
      <point x="510" y="437" type="curve" smooth="yes"/>
      <point x="454" y="437"/>
      <point x="416" y="418"/>
      <point x="391" y="395" type="curve"/>
      <point x="401" y="488"/>
      <point x="448" y="535"/>
      <point x="531" y="535" type="curve" smooth="yes"/>
      <point x="565" y="535"/>
      <point x="603" y="528"/>
      <point x="638" y="512" type="curve"/>
      <point x="638" y="584" type="line"/>
      <point x="602" y="596"/>
      <point x="568" y="603"/>
      <point x="527" y="603" type="curve" smooth="yes"/>
      <point x="403" y="603"/>
      <point x="310" y="522"/>
      <point x="310" y="323" type="curve" smooth="yes"/>
      <point x="310.0" y="183.0"/>
      <point x="393.0" y="113"/>
    </contour>
    <contour>
      <point x="494" y="181" type="curve" smooth="yes"/>
      <point x="424" y="181"/>
      <point x="385" y="226"/>
      <point x="387" y="309" type="curve"/>
      <point x="394" y="340"/>
      <point x="440" y="374"/>
      <point x="492" y="374" type="curve" smooth="yes"/>
      <point x="551" y="374"/>
      <point x="590" y="336"/>
      <point x="590" y="278" type="curve" smooth="yes"/>
      <point x="590" y="221"/>
      <point x="553" y="181"/>
    </contour>
    <contour>
      <point x="980" y="350" type="curve" smooth="yes"/>
      <point x="980" y="638"/>
      <point x="759" y="830"/>
      <point x="500" y="830" type="curve" smooth="yes"/>
      <point x="241" y="830"/>
      <point x="20" y="638"/>
      <point x="20" y="350" type="curve" smooth="yes"/>
      <point x="20" y="62"/>
      <point x="241" y="-130"/>
      <point x="500" y="-130" type="curve" smooth="yes"/>
      <point x="759" y="-130"/>
      <point x="980" y="62"/>
    </contour>
    <contour>
      <point x="916" y="350" type="curve" smooth="yes"/>
      <point x="916" y="125"/>
      <point x="750" y="-66"/>
      <point x="500" y="-66" type="curve" smooth="yes"/>
      <point x="250" y="-66"/>
      <point x="84" y="125"/>
      <point x="84" y="350" type="curve" smooth="yes"/>
      <point x="84" y="575"/>
      <point x="250" y="766"/>
      <point x="500" y="766" type="curve" smooth="yes"/>
      <point x="750" y="766"/>
      <point x="916" y="575"/>
    </contour>
  </outline>
</glyph>
<glyph name="uni2476" format="2">
  <advance height="1000" width="1000"/>
  <unicode hex="2476"/>
  <outline>
    <contour>
      <point x="495.0" y="26" type="curve" smooth="yes"/>
      <point x="595" y="26"/>
      <point x="656.0" y="78.0"/>
      <point x="656" y="160" type="curve" smooth="yes"/>
      <point x="656.0" y="220.0"/>
      <point x="615" y="267"/>
      <point x="549" y="279" type="curve"/>
      <point x="608" y="289.0"/>
      <point x="648.0" y="336.0"/>
      <point x="648" y="397" type="curve" smooth="yes"/>
      <point x="648.0" y="470.0"/>
      <point x="590" y="516.0"/>
      <point x="497" y="516.0" type="curve" smooth="yes"/>
      <point x="449" y="516.0"/>
      <point x="398.0" y="504.0"/>
      <point x="358" y="483" type="curve"/>
      <point x="358" y="411" type="line"/>
      <point x="397.0" y="437.0"/>
      <point x="442" y="448.0"/>
      <point x="487" y="448" type="curve" smooth="yes"/>
      <point x="536" y="448.0"/>
      <point x="570.0" y="426"/>
      <point x="570" y="384" type="curve" smooth="yes"/>
      <point x="570.0" y="337"/>
      <point x="528" y="309.0"/>
      <point x="457" y="309" type="curve" smooth="yes"/>
      <point x="430" y="309" type="line"/>
      <point x="430" y="245" type="line"/>
      <point x="459" y="245" type="line" smooth="yes"/>
      <point x="532.0" y="245.0"/>
      <point x="578.0" y="214"/>
      <point x="578" y="165" type="curve" smooth="yes"/>
      <point x="578.0" y="120"/>
      <point x="545" y="95.0"/>
      <point x="492" y="95" type="curve" smooth="yes"/>
      <point x="441" y="95.0"/>
      <point x="387" y="110.0"/>
      <point x="341" y="140.0" type="curve"/>
      <point x="341" y="65" type="line"/>
      <point x="387" y="40"/>
      <point x="442" y="26"/>
    </contour>
    <contour>
      <point x="185" y="-189" type="curve"/>
      <point x="278" y="-189" type="line"/>
      <point x="170" y="-49"/>
      <point x="114" y="109"/>
      <point x="114" y="276" type="curve" smooth="yes"/>
      <point x="114" y="443"/>
      <point x="170" y="600"/>
      <point x="278" y="740" type="curve"/>
      <point x="185" y="740" type="line"/>
      <point x="88" y="606"/>
      <point x="32" y="448"/>
      <point x="32" y="276" type="curve" smooth="yes"/>
      <point x="32" y="103"/>
      <point x="88" y="-55"/>
    </contour>
    <contour>
      <point x="722" y="-189" type="curve"/>
      <point x="815" y="-189" type="line"/>
      <point x="912" y="-55"/>
      <point x="968" y="103"/>
      <point x="968" y="275" type="curve" smooth="yes"/>
      <point x="968" y="448"/>
      <point x="912" y="606"/>
      <point x="815" y="740" type="curve"/>
      <point x="722" y="740" type="line"/>
      <point x="830" y="599"/>
      <point x="886" y="441"/>
      <point x="886" y="275" type="curve" smooth="yes"/>
      <point x="886" y="108"/>
      <point x="830" y="-49"/>
    </contour>
  </outline>
</glyph>
<glyph name="uni2479" format="2">
  <advance height="1000" width="1000"/>
  <unicode hex="2479"/>
  <outline>
    <contour>
      <point x="492" y="26" type="curve" smooth="yes"/>
      <point x="596" y="26"/>
      <point x="666" y="96"/>
      <point x="666" y="194" type="curve" smooth="yes"/>
      <point x="666" y="287"/>
      <point x="601" y="350"/>
      <point x="510" y="350" type="curve" smooth="yes"/>
      <point x="454" y="350"/>
      <point x="416" y="331"/>
      <point x="391" y="308" type="curve"/>
      <point x="401" y="401"/>
      <point x="448" y="448"/>
      <point x="531" y="448" type="curve" smooth="yes"/>
      <point x="565" y="448"/>
      <point x="603" y="441"/>
      <point x="638" y="425" type="curve"/>
      <point x="638" y="497" type="line"/>
      <point x="602" y="509"/>
      <point x="568" y="516"/>
      <point x="527" y="516" type="curve" smooth="yes"/>
      <point x="403" y="516"/>
      <point x="310" y="435"/>
      <point x="310" y="236" type="curve" smooth="yes"/>
      <point x="310.0" y="96.0"/>
      <point x="393.0" y="26"/>
    </contour>
    <contour>
      <point x="494" y="94" type="curve" smooth="yes"/>
      <point x="424" y="94"/>
      <point x="385" y="139"/>
      <point x="387" y="222" type="curve"/>
      <point x="394" y="253"/>
      <point x="440" y="287"/>
      <point x="492" y="287" type="curve" smooth="yes"/>
      <point x="551" y="287"/>
      <point x="590" y="249"/>
      <point x="590" y="191" type="curve" smooth="yes"/>
      <point x="590" y="134"/>
      <point x="553" y="94"/>
    </contour>
    <contour>
      <point x="185" y="-189" type="curve"/>
      <point x="278" y="-189" type="line"/>
      <point x="170" y="-49"/>
      <point x="114" y="109"/>
      <point x="114" y="276" type="curve" smooth="yes"/>
      <point x="114" y="443"/>
      <point x="170" y="600"/>
      <point x="278" y="740" type="curve"/>
      <point x="185" y="740" type="line"/>
      <point x="88" y="606"/>
      <point x="32" y="448"/>
      <point x="32" y="276" type="curve" smooth="yes"/>
      <point x="32" y="103"/>
      <point x="88" y="-55"/>
    </contour>
    <contour>
      <point x="722" y="-189" type="curve"/>
      <point x="815" y="-189" type="line"/>
      <point x="912" y="-55"/>
      <point x="968" y="103"/>
      <point x="968" y="275" type="curve" smooth="yes"/>
      <point x="968" y="448"/>
      <point x="912" y="606"/>
      <point x="815" y="740" type="curve"/>
      <point x="722" y="740" type="line"/>
      <point x="830" y="599"/>
      <point x="886" y="441"/>
      <point x="886" y="275" type="curve" smooth="yes"/>
      <point x="886" y="108"/>
      <point x="830" y="-49"/>
    </contour>
  </outline>
</glyph>
<glyph name="uni2488" format="2">
  <advance height="1000" width="1000"/>
  <unicode hex="2488"/>
  <outline>
    <contour>
      <point x="244" y="1" type="line"/>
      <point x="662" y="1" type="line"/>
      <point x="662" y="77" type="line"/>
      <point x="494" y="77" type="line"/>
      <point x="494" y="758" type="line"/>
      <point x="235" y="718" type="line"/>
      <point x="235" y="636" type="line"/>
      <point x="412" y="664" type="line"/>
      <point x="412" y="77" type="line"/>
      <point x="244" y="77" type="line"/>
    </contour>
    <contour>
      <point x="805" y="0" type="line"/>
      <point x="893" y="0" type="line"/>
      <point x="893" y="88" type="line"/>
      <point x="805" y="88" type="line"/>
    </contour>
  </outline>
</glyph>
<glyph name="uni248C" format="2">
  <advance height="1000" width="1000"/>
  <unicode hex="248C"/>
  <outline>
    <contour>
      <point x="440.0" y="-12.0" type="curve" smooth="yes"/>
      <point x="581.8132780082988" y="-12.0"/>
      <point x="679.0" y="82.0"/>
      <point x="679" y="223" type="curve" smooth="yes"/>
      <point x="679" y="364"/>
      <point x="583" y="448"/>
      <point x="426" y="448" type="curve" smooth="yes"/>
      <point x="393" y="448"/>
      <point x="362" y="445"/>
      <point x="331" y="440" type="curve"/>
      <point x="351" y="658" type="line"/>
      <point x="658" y="658" type="line"/>
      <point x="658" y="740" type="line"/>
      <point x="279" y="740" type="line"/>
      <point x="245" y="354" type="line"/>
      <point x="307" y="366"/>
      <point x="359" y="370"/>
      <point x="413" y="370" type="curve" smooth="yes"/>
      <point x="526.0" y="370.0"/>
      <point x="597.0" y="317.0"/>
      <point x="597.0" y="215.0" type="curve" smooth="yes"/>
      <point x="597.0" y="124.0"/>
      <point x="530" y="64"/>
      <point x="435.0" y="64.0" type="curve" smooth="yes"/>
      <point x="350" y="64"/>
      <point x="282" y="95"/>
      <point x="226" y="148" type="curve"/>
      <point x="226" y="56" type="line"/>
      <point x="286.5660377358491" y="9.0"/>
      <point x="352.1792452830189" y="-12.0"/>
    </contour>
    <contour>
      <point x="805" y="0" type="line"/>
      <point x="893" y="0" type="line"/>
      <point x="893" y="88" type="line"/>
      <point x="805" y="88" type="line"/>
    </contour>
  </outline>
</glyph>
<glyph name="uni249F" format="2">
  <advance height="1000" width="1000"/>
  <unicode hex="249F"/>
  <outline>
    <contour>
      <point x="478" y="-10" type="curve" smooth="yes"/>
      <point x="539" y="-10"/>
      <point x="596" y="19"/>
      <point x="630" y="71" type="curve"/>
      <point x="637" y="0" type="line"/>
      <point x="709" y="0" type="line"/>
      <point x="709" y="740" type="line"/>
      <point x="629" y="740" type="line"/>
      <point x="629" y="496" type="line"/>
      <point x="589" y="523"/>
      <point x="540" y="539"/>
      <point x="491" y="539" type="curve" smooth="yes"/>
      <point x="350" y="539"/>
      <point x="248" y="438"/>
      <point x="248" y="261" type="curve" smooth="yes"/>
      <point x="248" y="87"/>
      <point x="343" y="-10"/>
    </contour>
    <contour>
      <point x="493" y="66" type="curve" smooth="yes"/>
      <point x="392" y="66"/>
      <point x="330" y="143"/>
      <point x="330" y="264" type="curve" smooth="yes"/>
      <point x="330" y="386"/>
      <point x="396" y="463"/>
      <point x="500" y="463" type="curve" smooth="yes"/>
      <point x="548" y="463"/>
      <point x="593" y="446"/>
      <point x="629" y="417" type="curve"/>
      <point x="629" y="149" type="line"/>
      <point x="602" y="99"/>
      <point x="553" y="66"/>
    </contour>
    <contour>
      <point x="185" y="-189" type="curve"/>
      <point x="278" y="-189" type="line"/>
      <point x="170" y="-49"/>
      <point x="114" y="109"/>
      <point x="114" y="276" type="curve" smooth="yes"/>
      <point x="114" y="443"/>
      <point x="170" y="600"/>
      <point x="278" y="740" type="curve"/>
      <point x="185" y="740" type="line"/>
      <point x="88" y="606"/>
      <point x="32" y="448"/>
      <point x="32" y="276" type="curve" smooth="yes"/>
      <point x="32" y="103"/>
      <point x="88" y="-55"/>
    </contour>
    <contour>
      <point x="722" y="-189" type="curve"/>
      <point x="815" y="-189" type="line"/>
      <point x="912" y="-55"/>
      <point x="968" y="103"/>
      <point x="968" y="275" type="curve" smooth="yes"/>
      <point x="968" y="448"/>
      <point x="912" y="606"/>
      <point x="815" y="740" type="curve"/>
      <point x="722" y="740" type="line"/>
      <point x="830" y="599"/>
      <point x="886" y="441"/>
      <point x="886" y="275" type="curve" smooth="yes"/>
      <point x="886" y="108"/>
      <point x="830" y="-49"/>
    </contour>
  </outline>
</glyph>
<glyph name="uni24A0" format="2">
  <advance height="1000" width="1000"/>
  <unicode hex="24A0"/>
  <outline>
    <contour>
      <point x="512" y="-10" type="curve" smooth="yes"/>
      <point x="577" y="-10"/>
      <point x="642" y="9"/>
      <point x="706" y="46" type="curve"/>
      <point x="706" y="131" type="line"/>
      <point x="645" y="87"/>
      <point x="583" y="66"/>
      <point x="520" y="66" type="curve" smooth="yes"/>
      <point x="403" y="66"/>
      <point x="335" y="141"/>
      <point x="335" y="238" type="curve" smooth="yes"/>
      <point x="335" y="240" type="line"/>
      <point x="719" y="240" type="line"/>
      <point x="719" y="276" type="line" smooth="yes"/>
      <point x="719" y="443"/>
      <point x="629" y="539"/>
      <point x="488" y="539" type="curve" smooth="yes"/>
      <point x="342" y="539"/>
      <point x="252" y="428"/>
      <point x="252" y="266" type="curve" smooth="yes"/>
      <point x="252" y="95"/>
      <point x="346" y="-10"/>
    </contour>
    <contour>
      <point x="491" y="463" type="curve" smooth="yes"/>
      <point x="580" y="463"/>
      <point x="635" y="412"/>
      <point x="635" y="312" type="curve"/>
      <point x="335" y="312" type="line"/>
      <point x="342" y="408"/>
      <point x="404" y="463"/>
    </contour>
    <contour>
      <point x="185" y="-189" type="curve"/>
      <point x="278" y="-189" type="line"/>
      <point x="170" y="-49"/>
      <point x="114" y="109"/>
      <point x="114" y="276" type="curve" smooth="yes"/>
      <point x="114" y="443"/>
      <point x="170" y="600"/>
      <point x="278" y="740" type="curve"/>
      <point x="185" y="740" type="line"/>
      <point x="88" y="606"/>
      <point x="32" y="448"/>
      <point x="32" y="276" type="curve" smooth="yes"/>
      <point x="32" y="103"/>
      <point x="88" y="-55"/>
    </contour>
    <contour>
      <point x="722" y="-189" type="curve"/>
      <point x="815" y="-189" type="line"/>
      <point x="912" y="-55"/>
      <point x="968" y="103"/>
      <point x="968" y="275" type="curve" smooth="yes"/>
      <point x="968" y="448"/>
      <point x="912" y="606"/>
      <point x="815" y="740" type="curve"/>
      <point x="722" y="740" type="line"/>
      <point x="830" y="599"/>
      <point x="886" y="441"/>
      <point x="886" y="275" type="curve" smooth="yes"/>
      <point x="886" y="108"/>
      <point x="830" y="-49"/>
    </contour>
  </outline>
</glyph>
<glyph name="uni24B6" format="2">
  <advance height="1000" width="1000"/>
  <unicode hex="24B6"/>
  <outline>
    <contour>
      <point x="674" y="100" type="line"/>
      <point x="759" y="100" type="line"/>
      <point x="540" y="624" type="line"/>
      <point x="462" y="624" type="line"/>
      <point x="243" y="100" type="line"/>
      <point x="321" y="100" type="line"/>
      <point x="497" y="534" type="line"/>
    </contour>
    <contour>
      <point x="369" y="240" type="line"/>
      <point x="642" y="240" type="line"/>
      <point x="642" y="312" type="line"/>
      <point x="369" y="312" type="line"/>
    </contour>
    <contour>
      <point x="980" y="350" type="curve" smooth="yes"/>
      <point x="980" y="638"/>
      <point x="759" y="830"/>
      <point x="500" y="830" type="curve" smooth="yes"/>
      <point x="241" y="830"/>
      <point x="20" y="638"/>
      <point x="20" y="350" type="curve" smooth="yes"/>
      <point x="20" y="62"/>
      <point x="241" y="-130"/>
      <point x="500" y="-130" type="curve" smooth="yes"/>
      <point x="759" y="-130"/>
      <point x="980" y="62"/>
    </contour>
    <contour>
      <point x="916" y="350" type="curve" smooth="yes"/>
      <point x="916" y="125"/>
      <point x="750" y="-66"/>
      <point x="500" y="-66" type="curve" smooth="yes"/>
      <point x="250" y="-66"/>
      <point x="84" y="125"/>
      <point x="84" y="350" type="curve" smooth="yes"/>
      <point x="84" y="575"/>
      <point x="250" y="766"/>
      <point x="500" y="766" type="curve" smooth="yes"/>
      <point x="750" y="766"/>
      <point x="916" y="575"/>
    </contour>
  </outline>
</glyph>
<glyph name="uni24BA" format="2">
  <advance height="1000" width="1000"/>
  <unicode hex="24BA"/>
  <outline>
    <contour>
      <point x="341" y="100" type="line"/>
      <point x="673" y="100" type="line"/>
      <point x="673" y="172" type="line"/>
      <point x="419" y="172" type="line"/>
      <point x="419" y="315" type="line"/>
      <point x="648" y="315" type="line"/>
      <point x="648" y="387" type="line"/>
      <point x="419" y="387" type="line"/>
      <point x="419" y="528" type="line"/>
      <point x="660" y="528" type="line"/>
      <point x="660" y="600" type="line"/>
      <point x="341" y="600" type="line"/>
    </contour>
    <contour>
      <point x="980" y="350" type="curve" smooth="yes"/>
      <point x="980" y="638"/>
      <point x="759" y="830"/>
      <point x="500" y="830" type="curve" smooth="yes"/>
      <point x="241" y="830"/>
      <point x="20" y="638"/>
      <point x="20" y="350" type="curve" smooth="yes"/>
      <point x="20" y="62"/>
      <point x="241" y="-130"/>
      <point x="500" y="-130" type="curve" smooth="yes"/>
      <point x="759" y="-130"/>
      <point x="980" y="62"/>
    </contour>
    <contour>
      <point x="916" y="350" type="curve" smooth="yes"/>
      <point x="916" y="125"/>
      <point x="750" y="-66"/>
      <point x="500" y="-66" type="curve" smooth="yes"/>
      <point x="250" y="-66"/>
      <point x="84" y="125"/>
      <point x="84" y="350" type="curve" smooth="yes"/>
      <point x="84" y="575"/>
      <point x="250" y="766"/>
      <point x="500" y="766" type="curve" smooth="yes"/>
      <point x="750" y="766"/>
      <point x="916" y="575"/>
    </contour>
  </outline>
</glyph>
<glyph name="uni24BB" format="2">
  <advance height="1000" width="1000"/>
  <unicode hex="24BB"/>
  <outline>
    <contour>
      <point x="351" y="100" type="line"/>
      <point x="429" y="100" type="line"/>
      <point x="429" y="311" type="line"/>
      <point x="650" y="311" type="line"/>
      <point x="650" y="383" type="line"/>
      <point x="429" y="383" type="line"/>
      <point x="429" y="528" type="line"/>
      <point x="669" y="528" type="line"/>
      <point x="669" y="600" type="line"/>
      <point x="351" y="600" type="line"/>
    </contour>
    <contour>
      <point x="980" y="350" type="curve" smooth="yes"/>
      <point x="980" y="638"/>
      <point x="759" y="830"/>
      <point x="500" y="830" type="curve" smooth="yes"/>
      <point x="241" y="830"/>
      <point x="20" y="638"/>
      <point x="20" y="350" type="curve" smooth="yes"/>
      <point x="20" y="62"/>
      <point x="241" y="-130"/>
      <point x="500" y="-130" type="curve" smooth="yes"/>
      <point x="759" y="-130"/>
      <point x="980" y="62"/>
    </contour>
    <contour>
      <point x="916" y="350" type="curve" smooth="yes"/>
      <point x="916" y="125"/>
      <point x="750" y="-66"/>
      <point x="500" y="-66" type="curve" smooth="yes"/>
      <point x="250" y="-66"/>
      <point x="84" y="125"/>
      <point x="84" y="350" type="curve" smooth="yes"/>
      <point x="84" y="575"/>
      <point x="250" y="766"/>
      <point x="500" y="766" type="curve" smooth="yes"/>
      <point x="750" y="766"/>
      <point x="916" y="575"/>
    </contour>
  </outline>
</glyph>
<glyph name="uni2777" format="2">
  <advance height="1000" width="1000"/>
  <unicode hex="2777"/>
  <outline>
    <contour>
      <point x="346" y="125" type="line"/>
      <point x="346" y="198" type="line"/>
      <point x="537" y="346"/>
      <point x="581.0" y="399.0"/>
      <point x="581" y="456" type="curve" smooth="yes"/>
      <point x="581.0" y="511.0"/>
      <point x="541" y="539.0"/>
      <point x="485" y="539" type="curve" smooth="yes"/>
      <point x="441" y="539.0"/>
      <point x="392" y="526.0"/>
      <point x="349" y="499" type="curve"/>
      <point x="349" y="573" type="line"/>
      <point x="394" y="594"/>
      <point x="444" y="607.0"/>
      <point x="496" y="607.0" type="curve" smooth="yes"/>
      <point x="594" y="607.0"/>
      <point x="659.0" y="554.0"/>
      <point x="659" y="466" type="curve" smooth="yes"/>
      <point x="659.0" y="389.0"/>
      <point x="615" y="329.0"/>
      <point x="438" y="193" type="curve"/>
      <point x="662" y="193" type="line"/>
      <point x="662" y="125" type="line"/>
    </contour>
    <contour>
      <point x="988" y="360" type="curve" smooth="yes"/>
      <point x="988" y="653"/>
      <point x="764" y="848"/>
      <point x="500" y="848" type="curve" smooth="yes"/>
      <point x="236" y="848"/>
      <point x="12" y="653"/>
      <point x="12" y="360" type="curve" smooth="yes"/>
      <point x="12" y="67"/>
      <point x="236" y="-128"/>
      <point x="500" y="-128" type="curve" smooth="yes"/>
      <point x="764" y="-128"/>
      <point x="988" y="67"/>
    </contour>
  </outline>
</glyph>
<glyph name="five.tab" format="2">
  <advance width="630"/>
  <outline>
    <contour>
      <point x="295.0" y="-12.0" type="curve" smooth="yes"/>
      <point x="436.81327800829877" y="-12.0"/>
      <point x="534.0" y="82.0"/>
      <point x="534.0" y="223" type="curve" smooth="yes"/>
      <point x="534.0" y="364"/>
      <point x="438.0" y="448"/>
      <point x="281.0" y="448" type="curve" smooth="yes"/>
      <point x="248.0" y="448"/>
      <point x="217.0" y="445"/>
      <point x="186.0" y="440" type="curve"/>
      <point x="206.0" y="658" type="line"/>
      <point x="513.0" y="658" type="line"/>
      <point x="513.0" y="740" type="line"/>
      <point x="134.0" y="740" type="line"/>
      <point x="100.0" y="354" type="line"/>
      <point x="162.0" y="366"/>
      <point x="214.0" y="370"/>
      <point x="268.0" y="370" type="curve" smooth="yes"/>
      <point x="381.0" y="370.0"/>
      <point x="452.0" y="317"/>
      <point x="452.0" y="215" type="curve" smooth="yes"/>
      <point x="452.0" y="124"/>
      <point x="385.0" y="64"/>
      <point x="290.0" y="64.0" type="curve" smooth="yes"/>
      <point x="205.0" y="64"/>
      <point x="137.0" y="95"/>
      <point x="81.0" y="148" type="curve"/>
      <point x="81.0" y="56" type="line"/>
      <point x="141.56603773584908" y="9.0"/>
      <point x="207.17924528301887" y="-12.0"/>
    </contour>
  </outline>
</glyph>
<glyph name="four.tab" format="2">
  <advance width="630"/>
  <outline>
    <contour>
      <point x="382.5" y="0" type="line"/>
      <point x="464.5" y="0" type="line"/>
      <point x="464.5" y="201" type="line"/>
      <point x="574.5" y="201" type="line"/>
      <point x="574.5" y="273" type="line"/>
      <point x="464.5" y="273" type="line"/>
      <point x="464.5" y="740" type="line"/>
      <point x="366.5" y="740" type="line"/>
      <point x="44.5" y="258" type="line"/>
      <point x="44.5" y="201" type="line"/>
      <point x="382.5" y="201" type="line"/>
    </contour>
    <contour>
      <point x="140.5" y="273" type="line"/>
      <point x="382.5" y="635" type="line"/>
      <point x="382.5" y="273" type="line"/>
    </contour>
  </outline>
</glyph>
<glyph name="six.tab" format="2">
  <advance width="630"/>
  <outline>
    <contour>
      <point x="314.5" y="-14.0" type="curve" smooth="yes"/>
      <point x="446.5" y="-14"/>
      <point x="555.5" y="79"/>
      <point x="555.5" y="241" type="curve" smooth="yes"/>
      <point x="555.5" y="378.0"/>
      <point x="455.80603448275866" y="480.0"/>
      <point x="326.5" y="480" type="curve" smooth="yes"/>
      <point x="248.1875" y="480.0"/>
      <point x="187.16477272727272" y="445.0"/>
      <point x="147.5" y="383" type="curve"/>
      <point x="160.5" y="578"/>
      <point x="245.5" y="678"/>
      <point x="372.5" y="678" type="curve" smooth="yes"/>
      <point x="424.5" y="678"/>
      <point x="479.5" y="663"/>
      <point x="521.5" y="641" type="curve"/>
      <point x="521.5" y="724" type="line"/>
      <point x="475.5" y="742"/>
      <point x="419.5" y="754"/>
      <point x="367.5" y="754" type="curve" smooth="yes"/>
      <point x="179.27777777777777" y="754.0"/>
      <point x="59.5" y="598.0"/>
      <point x="59.5" y="304" type="curve" smooth="yes"/>
      <point x="59.5" y="86.0"/>
      <point x="170.3695652173913" y="-14.0"/>
    </contour>
    <contour>
      <point x="314.5" y="62.0" type="curve" smooth="yes"/>
      <point x="207.5" y="62"/>
      <point x="147.5" y="143"/>
      <point x="146.5" y="266" type="curve"/>
      <point x="160.75301204819277" y="345.0"/>
      <point x="233.03614457831327" y="404.0"/>
      <point x="315.5" y="404" type="curve" smooth="yes"/>
      <point x="414.6180124223602" y="404.0"/>
      <point x="473.5" y="333.0"/>
      <point x="473.5" y="237" type="curve" smooth="yes"/>
      <point x="473.5" y="134"/>
      <point x="404.5" y="62"/>
    </contour>
  </outline>
</glyph>
